G75*
%MOIN*%
%OFA0B0*%
%FSLAX24Y24*%
%IPPOS*%
%LPD*%
%AMOC8*
5,1,8,0,0,1.08239X$1,22.5*
%
%ADD10OC8,0.0560*%
%ADD11C,0.0594*%
%ADD12R,0.0433X0.0394*%
%ADD13C,0.0650*%
%ADD14C,0.0050*%
%ADD15R,0.0394X0.0433*%
%ADD16C,0.0200*%
%ADD17R,0.0396X0.0396*%
D10*
X004700Y017893D03*
X004700Y018893D03*
X005700Y018893D03*
X005700Y017893D03*
X006700Y017893D03*
X006700Y018893D03*
X007700Y018893D03*
X007700Y017893D03*
X008700Y017893D03*
X008700Y018893D03*
X009700Y018893D03*
X009700Y017893D03*
X010700Y017893D03*
X010700Y018893D03*
X011700Y018893D03*
X011700Y017893D03*
D11*
X011716Y010354D03*
X011716Y007893D03*
X012700Y007893D03*
X013684Y007893D03*
X013684Y010354D03*
D12*
X013700Y012559D03*
X013700Y013228D03*
X014700Y013228D03*
X014700Y012559D03*
X014700Y014059D03*
X014700Y014728D03*
X012700Y014728D03*
X012700Y014059D03*
X010700Y014059D03*
X010700Y014728D03*
X010700Y013228D03*
X010700Y012559D03*
X009700Y012559D03*
X009700Y013228D03*
D13*
X002700Y012593D03*
X002700Y014093D03*
X002700Y011093D03*
D14*
X001950Y005893D02*
X001450Y005893D01*
X001950Y005893D01*
X001950Y006393D01*
X001450Y006393D01*
X001450Y005893D01*
X001450Y005942D02*
X001950Y005942D01*
X001950Y005990D02*
X001450Y005990D01*
X001450Y006039D02*
X001950Y006039D01*
X001950Y006087D02*
X001450Y006087D01*
X001450Y006136D02*
X001950Y006136D01*
X001950Y006184D02*
X001450Y006184D01*
X001450Y006233D02*
X001950Y006233D01*
X001950Y006281D02*
X001450Y006281D01*
X001450Y006330D02*
X001950Y006330D01*
X001950Y006378D02*
X001450Y006378D01*
X003450Y006378D02*
X003950Y006378D01*
X003950Y006393D02*
X003950Y005893D01*
X003450Y005893D01*
X003950Y005893D01*
X003950Y005942D02*
X003450Y005942D01*
X003450Y005990D02*
X003950Y005990D01*
X003950Y006039D02*
X003450Y006039D01*
X003450Y006087D02*
X003950Y006087D01*
X003950Y006136D02*
X003450Y006136D01*
X003450Y006184D02*
X003950Y006184D01*
X003950Y006233D02*
X003450Y006233D01*
X003450Y006281D02*
X003950Y006281D01*
X003950Y006330D02*
X003450Y006330D01*
X003450Y006393D02*
X003950Y006393D01*
X003450Y006393D02*
X003450Y005893D01*
D15*
X005365Y012643D03*
X006035Y012643D03*
D16*
X006700Y012643D01*
X007148Y012642D02*
X009283Y012642D01*
X009283Y012559D02*
X009283Y012782D01*
X009297Y012833D01*
X009309Y012852D01*
X009272Y012889D01*
X009233Y012981D01*
X009233Y013475D01*
X009272Y013566D01*
X009342Y013637D01*
X009434Y013675D01*
X009966Y013675D01*
X010058Y013637D01*
X010117Y013578D01*
X010283Y013578D01*
X010342Y013637D01*
X010350Y013640D01*
X010350Y013646D01*
X010342Y013650D01*
X010283Y013709D01*
X009715Y013709D01*
X009586Y013762D01*
X009002Y014347D01*
X008903Y014445D01*
X008850Y014574D01*
X008850Y017363D01*
X008480Y017363D01*
X008200Y017644D01*
X007920Y017363D01*
X007480Y017363D01*
X007200Y017644D01*
X006920Y017363D01*
X006480Y017363D01*
X006200Y017644D01*
X005920Y017363D01*
X005480Y017363D01*
X005200Y017644D01*
X004920Y017363D01*
X004480Y017363D01*
X004170Y017674D01*
X004170Y018113D01*
X004480Y018423D01*
X004491Y018423D01*
X004220Y018694D01*
X004220Y018893D01*
X004700Y018893D01*
X004700Y018893D01*
X004220Y018893D01*
X004220Y019092D01*
X004501Y019373D01*
X004700Y019373D01*
X004700Y018893D01*
X004700Y018893D01*
X004700Y019373D01*
X004899Y019373D01*
X005170Y019102D01*
X005170Y019113D01*
X005480Y019423D01*
X005920Y019423D01*
X006200Y019143D01*
X006480Y019423D01*
X006920Y019423D01*
X007200Y019143D01*
X007480Y019423D01*
X007920Y019423D01*
X008200Y019143D01*
X008480Y019423D01*
X008920Y019423D01*
X009200Y019143D01*
X009480Y019423D01*
X009735Y019423D01*
X010153Y019842D01*
X010252Y019940D01*
X010380Y019993D01*
X013020Y019993D01*
X013148Y019940D01*
X014148Y018940D01*
X014247Y018842D01*
X014300Y018713D01*
X014300Y015743D01*
X014360Y015803D01*
X014452Y015841D01*
X014948Y015841D01*
X015040Y015803D01*
X015110Y015733D01*
X015148Y015641D01*
X015148Y015145D01*
X015119Y015076D01*
X015128Y015066D01*
X015167Y014975D01*
X015167Y014481D01*
X015130Y014393D01*
X015167Y014305D01*
X015167Y013812D01*
X015128Y013720D01*
X015058Y013650D01*
X015050Y013646D01*
X015050Y013640D01*
X015058Y013637D01*
X015128Y013566D01*
X015167Y013475D01*
X015167Y012981D01*
X015130Y012893D01*
X015167Y012805D01*
X015167Y012312D01*
X015128Y012220D01*
X015058Y012150D01*
X015050Y012146D01*
X015050Y008839D01*
X014997Y008711D01*
X014898Y008612D01*
X014898Y008612D01*
X014231Y007945D01*
X014231Y007785D01*
X014148Y007584D01*
X013994Y007430D01*
X013793Y007346D01*
X013575Y007346D01*
X013374Y007430D01*
X013221Y007584D01*
X013165Y007717D01*
X013160Y007703D01*
X013125Y007633D01*
X013079Y007570D01*
X013024Y007514D01*
X012960Y007468D01*
X012891Y007433D01*
X012816Y007409D01*
X012739Y007396D01*
X012700Y007396D01*
X012700Y007893D01*
X012700Y007893D01*
X012700Y007396D01*
X012661Y007396D01*
X012584Y007409D01*
X012509Y007433D01*
X012440Y007468D01*
X012376Y007514D01*
X012321Y007570D01*
X012275Y007633D01*
X012240Y007703D01*
X012235Y007717D01*
X012179Y007584D01*
X012026Y007430D01*
X011825Y007346D01*
X011607Y007346D01*
X011406Y007430D01*
X011252Y007584D01*
X011169Y007785D01*
X011169Y007945D01*
X010502Y008612D01*
X010403Y008711D01*
X010350Y008839D01*
X010350Y012146D01*
X010342Y012150D01*
X010272Y012220D01*
X010233Y012312D01*
X010233Y012805D01*
X010264Y012878D01*
X010117Y012878D01*
X010091Y012852D01*
X010103Y012833D01*
X010117Y012782D01*
X010117Y012559D01*
X009700Y012559D01*
X009700Y012559D01*
X009700Y012559D01*
X009283Y012559D01*
X009283Y012335D01*
X009297Y012285D01*
X009323Y012239D01*
X009361Y012202D01*
X009406Y012175D01*
X009457Y012162D01*
X009700Y012162D01*
X009943Y012162D01*
X009994Y012175D01*
X010039Y012202D01*
X010077Y012239D01*
X010103Y012285D01*
X010117Y012335D01*
X010117Y012559D01*
X009700Y012559D01*
X009283Y012559D01*
X009283Y012444D02*
X007148Y012444D01*
X007148Y012395D02*
X007148Y012891D01*
X007110Y012983D01*
X007040Y013053D01*
X006948Y013091D01*
X006452Y013091D01*
X006382Y013063D01*
X006373Y013072D01*
X006281Y013110D01*
X005883Y013110D01*
X005898Y013145D01*
X005898Y013641D01*
X005860Y013733D01*
X005790Y013803D01*
X005698Y013841D01*
X005202Y013841D01*
X005110Y013803D01*
X005040Y013733D01*
X005002Y013641D01*
X005002Y013145D01*
X005015Y013113D01*
X005015Y013060D01*
X004957Y013001D01*
X004953Y012993D01*
X003113Y012993D01*
X003026Y013081D01*
X002814Y013168D01*
X002586Y013168D01*
X002374Y013081D01*
X002213Y012919D01*
X002125Y012708D01*
X002125Y012479D01*
X002213Y012268D01*
X002374Y012106D01*
X002586Y012019D01*
X002814Y012019D01*
X003026Y012106D01*
X003187Y012268D01*
X003198Y012293D01*
X004953Y012293D01*
X004957Y012285D01*
X005027Y012215D01*
X005119Y012177D01*
X005612Y012177D01*
X005700Y012213D01*
X005788Y012177D01*
X006281Y012177D01*
X006373Y012215D01*
X006382Y012224D01*
X006452Y012195D01*
X006948Y012195D01*
X007040Y012233D01*
X007110Y012304D01*
X007148Y012395D01*
X007052Y012245D02*
X009320Y012245D01*
X009700Y012245D02*
X009700Y012245D01*
X009700Y012162D02*
X009700Y012559D01*
X009700Y012559D01*
X009700Y012162D01*
X009700Y012444D02*
X009700Y012444D01*
X010080Y012245D02*
X010261Y012245D01*
X010233Y012444D02*
X010117Y012444D01*
X010117Y012642D02*
X010233Y012642D01*
X010248Y012841D02*
X010098Y012841D01*
X009700Y013228D02*
X010700Y013228D01*
X010700Y014059D01*
X009785Y014059D01*
X009200Y014643D01*
X009200Y018643D01*
X008950Y018893D01*
X008700Y018893D01*
X008250Y019193D02*
X008150Y019193D01*
X007952Y019391D02*
X008448Y019391D01*
X008952Y019391D02*
X009448Y019391D01*
X009250Y019193D02*
X009150Y019193D01*
X009700Y018893D02*
X010450Y019643D01*
X012950Y019643D01*
X013950Y018643D01*
X013950Y014393D01*
X014285Y014059D01*
X014700Y014059D01*
X014700Y013228D01*
X013700Y013228D01*
X013233Y013238D02*
X013050Y013238D01*
X013050Y013436D02*
X013233Y013436D01*
X013233Y013475D02*
X013233Y012981D01*
X013272Y012889D01*
X013309Y012852D01*
X013297Y012833D01*
X013283Y012782D01*
X013283Y012559D01*
X013700Y012559D01*
X014117Y012559D01*
X014117Y012782D01*
X014103Y012833D01*
X014091Y012852D01*
X014117Y012878D01*
X014264Y012878D01*
X014233Y012805D01*
X014233Y012312D01*
X014272Y012220D01*
X014342Y012150D01*
X014350Y012146D01*
X014350Y009054D01*
X013736Y008440D01*
X013575Y008440D01*
X013374Y008357D01*
X013221Y008203D01*
X013165Y008069D01*
X013160Y008084D01*
X013125Y008154D01*
X013079Y008217D01*
X013024Y008272D01*
X012960Y008318D01*
X012891Y008354D01*
X012816Y008378D01*
X012739Y008390D01*
X012700Y008390D01*
X012700Y007893D01*
X012700Y007893D01*
X012700Y008390D01*
X012661Y008390D01*
X012584Y008378D01*
X012509Y008354D01*
X012440Y008318D01*
X012376Y008272D01*
X012321Y008217D01*
X012275Y008154D01*
X012240Y008084D01*
X012235Y008069D01*
X012179Y008203D01*
X012026Y008357D01*
X011825Y008440D01*
X011664Y008440D01*
X011050Y009054D01*
X011050Y012146D01*
X011058Y012150D01*
X011128Y012220D01*
X011167Y012312D01*
X011167Y012805D01*
X011130Y012893D01*
X011167Y012981D01*
X011167Y013475D01*
X011128Y013566D01*
X011058Y013637D01*
X011050Y013640D01*
X011050Y013646D01*
X011058Y013650D01*
X011128Y013720D01*
X011167Y013812D01*
X011167Y014305D01*
X011130Y014393D01*
X011167Y014481D01*
X011167Y014975D01*
X011128Y015066D01*
X011119Y015076D01*
X011148Y015145D01*
X011148Y015641D01*
X011110Y015733D01*
X011040Y015803D01*
X010948Y015841D01*
X010452Y015841D01*
X010360Y015803D01*
X010290Y015733D01*
X010252Y015641D01*
X010252Y015145D01*
X010281Y015076D01*
X010272Y015066D01*
X010233Y014975D01*
X010233Y014481D01*
X010264Y014409D01*
X009930Y014409D01*
X009550Y014788D01*
X009550Y017363D01*
X009920Y017363D01*
X010200Y017644D01*
X010480Y017363D01*
X010920Y017363D01*
X011200Y017644D01*
X011480Y017363D01*
X011920Y017363D01*
X012230Y017674D01*
X012230Y018113D01*
X011950Y018393D01*
X012100Y018543D01*
X012305Y018543D01*
X013100Y017748D01*
X013100Y015743D01*
X013040Y015803D01*
X012948Y015841D01*
X012452Y015841D01*
X012360Y015803D01*
X012290Y015733D01*
X012252Y015641D01*
X012252Y015145D01*
X012281Y015076D01*
X012272Y015066D01*
X012233Y014975D01*
X012233Y014481D01*
X012270Y014393D01*
X012233Y014305D01*
X012233Y013812D01*
X012272Y013720D01*
X012342Y013650D01*
X012350Y013646D01*
X012350Y011269D01*
X012403Y011140D01*
X012502Y011041D01*
X013137Y010406D01*
X013137Y010245D01*
X013221Y010044D01*
X013374Y009890D01*
X013575Y009807D01*
X013793Y009807D01*
X013994Y009890D01*
X014148Y010044D01*
X014231Y010245D01*
X014231Y010463D01*
X014148Y010664D01*
X013994Y010818D01*
X013793Y010901D01*
X013632Y010901D01*
X013050Y011483D01*
X013050Y013646D01*
X013058Y013650D01*
X013117Y013709D01*
X013185Y013709D01*
X013314Y013762D01*
X013648Y014097D01*
X013700Y014148D01*
X013988Y013860D01*
X014086Y013762D01*
X014215Y013709D01*
X014283Y013709D01*
X014342Y013650D01*
X014350Y013646D01*
X014350Y013640D01*
X014342Y013637D01*
X014283Y013578D01*
X014117Y013578D01*
X014058Y013637D01*
X013966Y013675D01*
X013434Y013675D01*
X013342Y013637D01*
X013272Y013566D01*
X013233Y013475D01*
X013340Y013635D02*
X013050Y013635D01*
X013385Y013833D02*
X014015Y013833D01*
X014060Y013635D02*
X014340Y013635D01*
X013817Y014032D02*
X013583Y014032D01*
X013450Y014393D02*
X013450Y017893D01*
X012450Y018893D01*
X011700Y018893D01*
X011955Y018399D02*
X012450Y018399D01*
X012648Y018200D02*
X012143Y018200D01*
X012230Y018002D02*
X012847Y018002D01*
X013045Y017803D02*
X012230Y017803D01*
X012161Y017605D02*
X013100Y017605D01*
X013100Y017406D02*
X011963Y017406D01*
X011437Y017406D02*
X010963Y017406D01*
X011161Y017605D02*
X011239Y017605D01*
X010437Y017406D02*
X009963Y017406D01*
X010161Y017605D02*
X010239Y017605D01*
X009550Y017208D02*
X013100Y017208D01*
X013100Y017009D02*
X009550Y017009D01*
X009550Y016811D02*
X013100Y016811D01*
X013100Y016612D02*
X009550Y016612D01*
X009550Y016414D02*
X013100Y016414D01*
X013100Y016215D02*
X009550Y016215D01*
X009550Y016017D02*
X013100Y016017D01*
X013100Y015818D02*
X013004Y015818D01*
X012700Y015393D02*
X012700Y014728D01*
X012233Y014826D02*
X011167Y014826D01*
X011167Y014627D02*
X012233Y014627D01*
X012255Y014429D02*
X011145Y014429D01*
X011167Y014230D02*
X012233Y014230D01*
X012233Y014032D02*
X011167Y014032D01*
X011167Y013833D02*
X012233Y013833D01*
X012350Y013635D02*
X011060Y013635D01*
X011167Y013436D02*
X012350Y013436D01*
X012350Y013238D02*
X011167Y013238D01*
X011167Y013039D02*
X012350Y013039D01*
X012350Y012841D02*
X011152Y012841D01*
X011167Y012642D02*
X012350Y012642D01*
X012350Y012444D02*
X011167Y012444D01*
X011139Y012245D02*
X012350Y012245D01*
X012350Y012047D02*
X011050Y012047D01*
X011050Y011848D02*
X012350Y011848D01*
X012350Y011650D02*
X011050Y011650D01*
X011050Y011451D02*
X012350Y011451D01*
X012357Y011253D02*
X011050Y011253D01*
X011050Y011054D02*
X012489Y011054D01*
X012687Y010856D02*
X011050Y010856D01*
X011050Y010657D02*
X011322Y010657D01*
X011337Y010678D02*
X011291Y010614D01*
X011255Y010545D01*
X011231Y010470D01*
X011219Y010393D01*
X011219Y010354D01*
X011716Y010354D01*
X012213Y010354D01*
X012213Y010393D01*
X012200Y010470D01*
X012176Y010545D01*
X012141Y010614D01*
X012095Y010678D01*
X012039Y010733D01*
X011976Y010779D01*
X011906Y010814D01*
X011832Y010839D01*
X011755Y010851D01*
X011716Y010851D01*
X011716Y010354D01*
X011716Y010354D01*
X012213Y010354D01*
X012213Y010315D01*
X012200Y010238D01*
X012176Y010163D01*
X012141Y010094D01*
X012095Y010030D01*
X012039Y009975D01*
X011976Y009929D01*
X011906Y009893D01*
X011832Y009869D01*
X011755Y009857D01*
X011716Y009857D01*
X011716Y010354D01*
X011716Y010354D01*
X011716Y010354D01*
X011716Y010851D01*
X011677Y010851D01*
X011599Y010839D01*
X011525Y010814D01*
X011455Y010779D01*
X011392Y010733D01*
X011337Y010678D01*
X011229Y010459D02*
X011050Y010459D01*
X011050Y010260D02*
X011228Y010260D01*
X011231Y010238D02*
X011255Y010163D01*
X011291Y010094D01*
X011337Y010030D01*
X011392Y009975D01*
X011455Y009929D01*
X011525Y009893D01*
X011599Y009869D01*
X011677Y009857D01*
X011716Y009857D01*
X011716Y010354D01*
X011716Y010354D01*
X011219Y010354D01*
X011219Y010315D01*
X011231Y010238D01*
X011314Y010062D02*
X011050Y010062D01*
X011050Y009863D02*
X011637Y009863D01*
X011716Y009863D02*
X011716Y009863D01*
X011794Y009863D02*
X013440Y009863D01*
X013213Y010062D02*
X012118Y010062D01*
X012204Y010260D02*
X013137Y010260D01*
X013084Y010459D02*
X012202Y010459D01*
X012109Y010657D02*
X012886Y010657D01*
X012700Y011338D02*
X012700Y014059D01*
X013115Y014059D01*
X013450Y014393D01*
X014700Y014728D02*
X014700Y015393D01*
X015148Y015421D02*
X015195Y015421D01*
X015195Y015223D02*
X015148Y015223D01*
X015146Y015024D02*
X015195Y015024D01*
X015195Y014826D02*
X015167Y014826D01*
X015167Y014627D02*
X015195Y014627D01*
X015195Y014429D02*
X015145Y014429D01*
X015167Y014230D02*
X015195Y014230D01*
X015195Y014032D02*
X015167Y014032D01*
X015167Y013833D02*
X015195Y013833D01*
X015195Y013635D02*
X015060Y013635D01*
X015167Y013436D02*
X015195Y013436D01*
X015195Y013238D02*
X015167Y013238D01*
X015167Y013039D02*
X015195Y013039D01*
X015195Y012841D02*
X015152Y012841D01*
X015167Y012642D02*
X015195Y012642D01*
X015195Y012444D02*
X015167Y012444D01*
X015139Y012245D02*
X015195Y012245D01*
X015195Y012047D02*
X015050Y012047D01*
X015050Y011848D02*
X015195Y011848D01*
X015195Y011650D02*
X015050Y011650D01*
X015050Y011451D02*
X015195Y011451D01*
X015195Y011253D02*
X015050Y011253D01*
X015050Y011054D02*
X015195Y011054D01*
X015195Y010856D02*
X015050Y010856D01*
X015050Y010657D02*
X015195Y010657D01*
X015195Y010459D02*
X015050Y010459D01*
X015050Y010260D02*
X015195Y010260D01*
X015195Y010062D02*
X015050Y010062D01*
X015050Y009863D02*
X015195Y009863D01*
X015195Y009665D02*
X015050Y009665D01*
X015050Y009466D02*
X015195Y009466D01*
X015195Y009268D02*
X015050Y009268D01*
X015050Y009069D02*
X015195Y009069D01*
X015195Y008871D02*
X015050Y008871D01*
X014958Y008672D02*
X015195Y008672D01*
X015195Y008474D02*
X014760Y008474D01*
X014561Y008275D02*
X015195Y008275D01*
X015195Y008077D02*
X014363Y008077D01*
X014231Y007878D02*
X015195Y007878D01*
X015195Y007680D02*
X014188Y007680D01*
X014046Y007481D02*
X015195Y007481D01*
X015195Y007283D02*
X000705Y007283D01*
X000705Y007481D02*
X011354Y007481D01*
X011212Y007680D02*
X000705Y007680D01*
X000705Y007878D02*
X011169Y007878D01*
X011037Y008077D02*
X000705Y008077D01*
X000705Y008275D02*
X010839Y008275D01*
X010640Y008474D02*
X000705Y008474D01*
X000705Y008672D02*
X010442Y008672D01*
X010350Y008871D02*
X000705Y008871D01*
X000705Y009069D02*
X010350Y009069D01*
X010350Y009268D02*
X000705Y009268D01*
X000705Y009466D02*
X010350Y009466D01*
X010350Y009665D02*
X000705Y009665D01*
X000705Y009863D02*
X010350Y009863D01*
X010350Y010062D02*
X000705Y010062D01*
X000705Y010260D02*
X010350Y010260D01*
X010350Y010459D02*
X000705Y010459D01*
X000705Y010657D02*
X002323Y010657D01*
X002374Y010606D02*
X002586Y010519D01*
X002814Y010519D01*
X003026Y010606D01*
X003187Y010768D01*
X003275Y010979D01*
X003275Y011208D01*
X003187Y011419D01*
X003026Y011581D01*
X002814Y011668D01*
X002586Y011668D01*
X002374Y011581D01*
X002213Y011419D01*
X002125Y011208D01*
X002125Y010979D01*
X002213Y010768D01*
X002374Y010606D01*
X002176Y010856D02*
X000705Y010856D01*
X000705Y011054D02*
X002125Y011054D01*
X002144Y011253D02*
X000705Y011253D01*
X000705Y011451D02*
X002245Y011451D01*
X002541Y011650D02*
X000705Y011650D01*
X000705Y011848D02*
X010350Y011848D01*
X010350Y011650D02*
X002859Y011650D01*
X002883Y012047D02*
X010350Y012047D01*
X010350Y011451D02*
X003155Y011451D01*
X003256Y011253D02*
X010350Y011253D01*
X010350Y011054D02*
X003275Y011054D01*
X003224Y010856D02*
X010350Y010856D01*
X010350Y010657D02*
X003077Y010657D01*
X002517Y012047D02*
X000705Y012047D01*
X000705Y012245D02*
X002235Y012245D01*
X002140Y012444D02*
X000705Y012444D01*
X000705Y012642D02*
X002125Y012642D01*
X002180Y012841D02*
X000705Y012841D01*
X000705Y013039D02*
X002333Y013039D01*
X002750Y012643D02*
X002700Y012593D01*
X002750Y012643D02*
X005365Y012643D01*
X005365Y013309D01*
X005450Y013393D01*
X005898Y013436D02*
X009233Y013436D01*
X009233Y013238D02*
X005898Y013238D01*
X005898Y013635D02*
X009340Y013635D01*
X009515Y013833D02*
X005717Y013833D01*
X005183Y013833D02*
X003157Y013833D01*
X003149Y013818D02*
X003186Y013892D01*
X003212Y013970D01*
X003225Y014052D01*
X003225Y014085D01*
X002708Y014085D01*
X002708Y013569D01*
X002741Y013569D01*
X002823Y013581D01*
X002901Y013607D01*
X002975Y013644D01*
X003042Y013693D01*
X003100Y013751D01*
X003149Y013818D01*
X003222Y014032D02*
X009317Y014032D01*
X009118Y014230D02*
X003207Y014230D01*
X003212Y014216D02*
X003186Y014295D01*
X003149Y014368D01*
X003100Y014435D01*
X003042Y014494D01*
X002975Y014542D01*
X002901Y014580D01*
X002823Y014605D01*
X002741Y014618D01*
X002708Y014618D01*
X002708Y014102D01*
X002692Y014102D01*
X002692Y014618D01*
X002659Y014618D01*
X002577Y014605D01*
X002499Y014580D01*
X002425Y014542D01*
X002358Y014494D01*
X002300Y014435D01*
X002251Y014368D01*
X002214Y014295D01*
X002188Y014216D01*
X002175Y014135D01*
X002175Y014102D01*
X002692Y014102D01*
X002692Y014085D01*
X002708Y014085D01*
X002708Y014102D01*
X003225Y014102D01*
X003225Y014135D01*
X003212Y014216D01*
X003105Y014429D02*
X008920Y014429D01*
X008850Y014627D02*
X000705Y014627D01*
X000705Y014429D02*
X002295Y014429D01*
X002193Y014230D02*
X000705Y014230D01*
X000705Y014032D02*
X002178Y014032D01*
X002175Y014052D02*
X002188Y013970D01*
X002214Y013892D01*
X002251Y013818D01*
X002300Y013751D01*
X002358Y013693D01*
X002425Y013644D01*
X002499Y013607D01*
X002577Y013581D01*
X002659Y013569D01*
X002692Y013569D01*
X002692Y014085D01*
X002175Y014085D01*
X002175Y014052D01*
X002243Y013833D02*
X000705Y013833D01*
X000705Y013635D02*
X002444Y013635D01*
X002692Y013635D02*
X002708Y013635D01*
X002692Y013833D02*
X002708Y013833D01*
X002692Y014032D02*
X002708Y014032D01*
X002692Y014230D02*
X002708Y014230D01*
X002692Y014429D02*
X002708Y014429D01*
X002956Y013635D02*
X005002Y013635D01*
X005002Y013436D02*
X000705Y013436D01*
X000705Y013238D02*
X005002Y013238D01*
X004994Y013039D02*
X003067Y013039D01*
X003165Y012245D02*
X004996Y012245D01*
X007054Y013039D02*
X009233Y013039D01*
X009302Y012841D02*
X007148Y012841D01*
X008850Y014826D02*
X000705Y014826D01*
X000705Y015024D02*
X008850Y015024D01*
X008850Y015223D02*
X000705Y015223D01*
X000705Y015421D02*
X008850Y015421D01*
X008850Y015620D02*
X000705Y015620D01*
X000705Y015818D02*
X008850Y015818D01*
X008850Y016017D02*
X000705Y016017D01*
X000705Y016215D02*
X008850Y016215D01*
X008850Y016414D02*
X000705Y016414D01*
X000705Y016612D02*
X008850Y016612D01*
X008850Y016811D02*
X000705Y016811D01*
X000705Y017009D02*
X008850Y017009D01*
X008850Y017208D02*
X000705Y017208D01*
X000705Y017406D02*
X004437Y017406D01*
X004239Y017605D02*
X000705Y017605D01*
X000705Y017803D02*
X004170Y017803D01*
X004170Y018002D02*
X000705Y018002D01*
X000705Y018200D02*
X004257Y018200D01*
X004456Y018399D02*
X000705Y018399D01*
X000705Y018597D02*
X004317Y018597D01*
X004220Y018796D02*
X000705Y018796D01*
X000705Y018994D02*
X004220Y018994D01*
X004321Y019193D02*
X000705Y019193D01*
X000705Y019391D02*
X005448Y019391D01*
X005250Y019193D02*
X005079Y019193D01*
X004700Y019193D02*
X004700Y019193D01*
X004700Y018994D02*
X004700Y018994D01*
X005952Y019391D02*
X006448Y019391D01*
X006250Y019193D02*
X006150Y019193D01*
X006952Y019391D02*
X007448Y019391D01*
X007250Y019193D02*
X007150Y019193D01*
X007161Y017605D02*
X007239Y017605D01*
X007437Y017406D02*
X006963Y017406D01*
X006437Y017406D02*
X005963Y017406D01*
X006161Y017605D02*
X006239Y017605D01*
X005437Y017406D02*
X004963Y017406D01*
X005161Y017605D02*
X005239Y017605D01*
X007963Y017406D02*
X008437Y017406D01*
X008239Y017605D02*
X008161Y017605D01*
X009550Y015818D02*
X010396Y015818D01*
X010252Y015620D02*
X009550Y015620D01*
X009550Y015421D02*
X010252Y015421D01*
X010252Y015223D02*
X009550Y015223D01*
X009550Y015024D02*
X010254Y015024D01*
X010233Y014826D02*
X009550Y014826D01*
X009711Y014627D02*
X010233Y014627D01*
X010255Y014429D02*
X009909Y014429D01*
X010060Y013635D02*
X010340Y013635D01*
X010700Y014728D02*
X010700Y015393D01*
X011004Y015818D02*
X012396Y015818D01*
X012252Y015620D02*
X011148Y015620D01*
X011148Y015421D02*
X012252Y015421D01*
X012252Y015223D02*
X011148Y015223D01*
X011146Y015024D02*
X012254Y015024D01*
X013050Y013039D02*
X013233Y013039D01*
X013302Y012841D02*
X013050Y012841D01*
X013050Y012642D02*
X013283Y012642D01*
X013283Y012559D02*
X013283Y012335D01*
X013297Y012285D01*
X013323Y012239D01*
X013361Y012202D01*
X013406Y012175D01*
X013457Y012162D01*
X013700Y012162D01*
X013943Y012162D01*
X013994Y012175D01*
X014039Y012202D01*
X014077Y012239D01*
X014103Y012285D01*
X014117Y012335D01*
X014117Y012559D01*
X013700Y012559D01*
X013700Y012559D01*
X013700Y012559D01*
X013283Y012559D01*
X013283Y012444D02*
X013050Y012444D01*
X013050Y012245D02*
X013320Y012245D01*
X013050Y012047D02*
X014350Y012047D01*
X014350Y011848D02*
X013050Y011848D01*
X013050Y011650D02*
X014350Y011650D01*
X014350Y011451D02*
X013082Y011451D01*
X013280Y011253D02*
X014350Y011253D01*
X014350Y011054D02*
X013479Y011054D01*
X013902Y010856D02*
X014350Y010856D01*
X014350Y010657D02*
X014150Y010657D01*
X014231Y010459D02*
X014350Y010459D01*
X014350Y010260D02*
X014231Y010260D01*
X014155Y010062D02*
X014350Y010062D01*
X014350Y009863D02*
X013929Y009863D01*
X013684Y010354D02*
X012700Y011338D01*
X011716Y010657D02*
X011716Y010657D01*
X011716Y010459D02*
X011716Y010459D01*
X011716Y010260D02*
X011716Y010260D01*
X011716Y010062D02*
X011716Y010062D01*
X011050Y009665D02*
X014350Y009665D01*
X014350Y009466D02*
X011050Y009466D01*
X011050Y009268D02*
X014350Y009268D01*
X014350Y009069D02*
X011050Y009069D01*
X011233Y008871D02*
X014167Y008871D01*
X013968Y008672D02*
X011432Y008672D01*
X011630Y008474D02*
X013770Y008474D01*
X013293Y008275D02*
X013020Y008275D01*
X013163Y008077D02*
X013168Y008077D01*
X013149Y007680D02*
X013181Y007680D01*
X013323Y007481D02*
X012978Y007481D01*
X012700Y007481D02*
X012700Y007481D01*
X012700Y007680D02*
X012700Y007680D01*
X012700Y007878D02*
X012700Y007878D01*
X012700Y008077D02*
X012700Y008077D01*
X012700Y008275D02*
X012700Y008275D01*
X012380Y008275D02*
X012107Y008275D01*
X012232Y008077D02*
X012237Y008077D01*
X012219Y007680D02*
X012251Y007680D01*
X012422Y007481D02*
X012077Y007481D01*
X011716Y007893D02*
X010700Y008909D01*
X010700Y012559D01*
X013700Y012559D02*
X013700Y012162D01*
X013700Y012559D01*
X013700Y012559D01*
X013700Y012444D02*
X013700Y012444D01*
X013700Y012245D02*
X013700Y012245D01*
X014080Y012245D02*
X014261Y012245D01*
X014233Y012444D02*
X014117Y012444D01*
X014117Y012642D02*
X014233Y012642D01*
X014248Y012841D02*
X014098Y012841D01*
X014700Y012559D02*
X014700Y008909D01*
X013684Y007893D01*
X015195Y007084D02*
X000705Y007084D01*
X000705Y006886D02*
X015195Y006886D01*
X015195Y006687D02*
X000705Y006687D01*
X000705Y006489D02*
X001192Y006489D01*
X001175Y006448D02*
X001175Y006398D01*
X000705Y006398D01*
X000705Y020388D01*
X015195Y020388D01*
X015195Y006398D01*
X004225Y006398D01*
X004225Y006448D01*
X004183Y006549D01*
X004106Y006626D01*
X004005Y006668D01*
X003395Y006668D01*
X003294Y006626D01*
X003217Y006549D01*
X003175Y006448D01*
X003175Y006398D01*
X002225Y006398D01*
X002225Y006448D01*
X002183Y006549D01*
X002106Y006626D01*
X002005Y006668D01*
X001395Y006668D01*
X001294Y006626D01*
X001217Y006549D01*
X001175Y006448D01*
X002208Y006489D02*
X003192Y006489D01*
X004208Y006489D02*
X015195Y006489D01*
X015148Y015620D02*
X015195Y015620D01*
X015195Y015818D02*
X015004Y015818D01*
X015195Y016017D02*
X014300Y016017D01*
X014300Y016215D02*
X015195Y016215D01*
X015195Y016414D02*
X014300Y016414D01*
X014300Y016612D02*
X015195Y016612D01*
X015195Y016811D02*
X014300Y016811D01*
X014300Y017009D02*
X015195Y017009D01*
X015195Y017208D02*
X014300Y017208D01*
X014300Y017406D02*
X015195Y017406D01*
X015195Y017605D02*
X014300Y017605D01*
X014300Y017803D02*
X015195Y017803D01*
X015195Y018002D02*
X014300Y018002D01*
X014300Y018200D02*
X015195Y018200D01*
X015195Y018399D02*
X014300Y018399D01*
X014300Y018597D02*
X015195Y018597D01*
X015195Y018796D02*
X014266Y018796D01*
X014094Y018994D02*
X015195Y018994D01*
X015195Y019193D02*
X013895Y019193D01*
X013697Y019391D02*
X015195Y019391D01*
X015195Y019590D02*
X013498Y019590D01*
X013300Y019788D02*
X015195Y019788D01*
X015195Y019987D02*
X013035Y019987D01*
X015195Y020185D02*
X000705Y020185D01*
X000705Y019987D02*
X010365Y019987D01*
X010100Y019788D02*
X000705Y019788D01*
X000705Y019590D02*
X009902Y019590D01*
X014300Y015818D02*
X014396Y015818D01*
X015195Y020384D02*
X000705Y020384D01*
D17*
X005450Y013393D03*
X006700Y012643D03*
X010700Y015393D03*
X012700Y015393D03*
X014700Y015393D03*
M02*
