G75*
%MOIN*%
%OFA0B0*%
%FSLAX24Y24*%
%IPPOS*%
%LPD*%
%AMOC8*
5,1,8,0,0,1.08239X$1,22.5*
%
%ADD10OC8,0.0560*%
%ADD11C,0.0594*%
%ADD12C,0.0650*%
%ADD13C,0.0050*%
%ADD14C,0.0200*%
%ADD15R,0.0396X0.0396*%
D10*
X004700Y017893D03*
X004700Y018893D03*
X005700Y018893D03*
X005700Y017893D03*
X006700Y017893D03*
X006700Y018893D03*
X007700Y018893D03*
X007700Y017893D03*
X008700Y017893D03*
X008700Y018893D03*
X009700Y018893D03*
X009700Y017893D03*
X010700Y017893D03*
X010700Y018893D03*
X011700Y018893D03*
X011700Y017893D03*
D11*
X011716Y010354D03*
X011716Y007893D03*
X012700Y007893D03*
X013684Y007893D03*
X013684Y010354D03*
D12*
X002700Y011093D03*
X002700Y012593D03*
X002700Y014093D03*
D13*
X001950Y005893D02*
X001450Y005893D01*
X001950Y005893D01*
X001950Y006393D01*
X001450Y006393D01*
X001450Y005893D01*
X001450Y005942D02*
X001950Y005942D01*
X001950Y005990D02*
X001450Y005990D01*
X001450Y006039D02*
X001950Y006039D01*
X001950Y006087D02*
X001450Y006087D01*
X001450Y006136D02*
X001950Y006136D01*
X001950Y006184D02*
X001450Y006184D01*
X001450Y006233D02*
X001950Y006233D01*
X001950Y006281D02*
X001450Y006281D01*
X001450Y006330D02*
X001950Y006330D01*
X001950Y006378D02*
X001450Y006378D01*
X003450Y006378D02*
X003950Y006378D01*
X003950Y006393D02*
X003950Y005893D01*
X003450Y005893D01*
X003950Y005893D01*
X003950Y005942D02*
X003450Y005942D01*
X003450Y005990D02*
X003950Y005990D01*
X003950Y006039D02*
X003450Y006039D01*
X003450Y006087D02*
X003950Y006087D01*
X003950Y006136D02*
X003450Y006136D01*
X003450Y006184D02*
X003950Y006184D01*
X003950Y006233D02*
X003450Y006233D01*
X003450Y006281D02*
X003950Y006281D01*
X003950Y006330D02*
X003450Y006330D01*
X003450Y006393D02*
X003950Y006393D01*
X003450Y006393D02*
X003450Y005893D01*
D14*
X003175Y006398D02*
X002225Y006398D01*
X002225Y006448D01*
X002183Y006549D01*
X002106Y006626D01*
X002005Y006668D01*
X001395Y006668D01*
X001294Y006626D01*
X001217Y006549D01*
X001175Y006448D01*
X001175Y006398D01*
X000705Y006398D01*
X000705Y020388D01*
X015195Y020388D01*
X015195Y006398D01*
X004225Y006398D01*
X004225Y006448D01*
X004183Y006549D01*
X004106Y006626D01*
X004005Y006668D01*
X003395Y006668D01*
X003294Y006626D01*
X003217Y006549D01*
X003175Y006448D01*
X003175Y006398D01*
X003192Y006489D02*
X002208Y006489D01*
X001192Y006489D02*
X000705Y006489D01*
X000705Y006687D02*
X015195Y006687D01*
X015195Y006489D02*
X004208Y006489D01*
X002814Y010519D02*
X002586Y010519D01*
X002374Y010606D01*
X002213Y010768D01*
X002125Y010979D01*
X002125Y011208D01*
X002213Y011419D01*
X002374Y011581D01*
X002586Y011668D01*
X002814Y011668D01*
X003026Y011581D01*
X003187Y011419D01*
X003275Y011208D01*
X003275Y010979D01*
X003187Y010768D01*
X003026Y010606D01*
X002814Y010519D01*
X003077Y010657D02*
X011322Y010657D01*
X011337Y010678D02*
X011291Y010614D01*
X011255Y010545D01*
X011231Y010470D01*
X011219Y010393D01*
X011219Y010354D01*
X011716Y010354D01*
X012213Y010354D01*
X012213Y010393D01*
X012200Y010470D01*
X012176Y010545D01*
X012141Y010614D01*
X012095Y010678D01*
X012039Y010733D01*
X011976Y010779D01*
X011906Y010814D01*
X011832Y010839D01*
X011755Y010851D01*
X011716Y010851D01*
X011716Y010354D01*
X011716Y010354D01*
X012213Y010354D01*
X012213Y010315D01*
X012200Y010238D01*
X012176Y010163D01*
X012141Y010094D01*
X012095Y010030D01*
X012039Y009975D01*
X011976Y009929D01*
X011906Y009893D01*
X011832Y009869D01*
X011755Y009857D01*
X011716Y009857D01*
X011716Y010354D01*
X011716Y010354D01*
X011716Y010354D01*
X011716Y010851D01*
X011677Y010851D01*
X011599Y010839D01*
X011525Y010814D01*
X011455Y010779D01*
X011392Y010733D01*
X011337Y010678D01*
X011229Y010459D02*
X000705Y010459D01*
X000705Y010657D02*
X002323Y010657D01*
X002176Y010856D02*
X000705Y010856D01*
X000705Y011054D02*
X002125Y011054D01*
X002144Y011253D02*
X000705Y011253D01*
X000705Y011451D02*
X002245Y011451D01*
X002541Y011650D02*
X000705Y011650D01*
X000705Y011848D02*
X015195Y011848D01*
X015195Y011650D02*
X002859Y011650D01*
X002814Y012019D02*
X002586Y012019D01*
X002374Y012106D01*
X002213Y012268D01*
X002125Y012479D01*
X002125Y012708D01*
X002213Y012919D01*
X002374Y013081D01*
X002586Y013168D01*
X002814Y013168D01*
X003026Y013081D01*
X003187Y012919D01*
X003275Y012708D01*
X003275Y012479D01*
X003187Y012268D01*
X003026Y012106D01*
X002814Y012019D01*
X002883Y012047D02*
X015195Y012047D01*
X015195Y012245D02*
X007052Y012245D01*
X007040Y012233D02*
X007100Y012293D01*
X007770Y012293D01*
X007898Y012347D01*
X010497Y014945D01*
X010948Y014945D01*
X011040Y014983D01*
X011100Y015043D01*
X012300Y015043D01*
X012360Y014983D01*
X012452Y014945D01*
X012948Y014945D01*
X013040Y014983D01*
X013100Y015043D01*
X014300Y015043D01*
X014360Y014983D01*
X014452Y014945D01*
X014948Y014945D01*
X015040Y014983D01*
X015110Y015054D01*
X015148Y015145D01*
X015148Y015641D01*
X015110Y015733D01*
X015040Y015803D01*
X014948Y015841D01*
X014452Y015841D01*
X014360Y015803D01*
X014300Y015743D01*
X013100Y015743D01*
X013040Y015803D01*
X012948Y015841D01*
X012452Y015841D01*
X012360Y015803D01*
X012300Y015743D01*
X011100Y015743D01*
X011050Y015793D01*
X011050Y017494D01*
X011200Y017644D01*
X011480Y017363D01*
X011920Y017363D01*
X012230Y017674D01*
X012230Y018113D01*
X011950Y018393D01*
X012230Y018674D01*
X012230Y019113D01*
X011920Y019423D01*
X011480Y019423D01*
X011200Y019143D01*
X010920Y019423D01*
X010480Y019423D01*
X010200Y019143D01*
X009920Y019423D01*
X009480Y019423D01*
X009200Y019143D01*
X008920Y019423D01*
X008480Y019423D01*
X008200Y019143D01*
X007920Y019423D01*
X007480Y019423D01*
X007200Y019143D01*
X006920Y019423D01*
X006480Y019423D01*
X006200Y019143D01*
X005920Y019423D01*
X005480Y019423D01*
X005170Y019113D01*
X005170Y019102D01*
X004899Y019373D01*
X004700Y019373D01*
X004501Y019373D01*
X004220Y019092D01*
X004220Y018893D01*
X004220Y018694D01*
X004491Y018423D01*
X004480Y018423D01*
X004170Y018113D01*
X004170Y017674D01*
X004480Y017363D01*
X004920Y017363D01*
X005200Y017644D01*
X005480Y017363D01*
X005920Y017363D01*
X006200Y017644D01*
X006480Y017363D01*
X006920Y017363D01*
X007200Y017644D01*
X007480Y017363D01*
X007920Y017363D01*
X008200Y017644D01*
X008480Y017363D01*
X008920Y017363D01*
X009200Y017644D01*
X009480Y017363D01*
X009850Y017363D01*
X009850Y016538D01*
X009805Y016493D01*
X008130Y016493D01*
X008002Y016440D01*
X007903Y016342D01*
X005403Y013841D01*
X005202Y013841D01*
X005110Y013803D01*
X005040Y013733D01*
X005002Y013641D01*
X005002Y013145D01*
X005040Y013054D01*
X005110Y012983D01*
X005202Y012945D01*
X005698Y012945D01*
X005790Y012983D01*
X005860Y013054D01*
X005898Y013145D01*
X005898Y013346D01*
X008345Y015793D01*
X010020Y015793D01*
X010148Y015847D01*
X010350Y016048D01*
X010350Y015793D01*
X010290Y015733D01*
X010276Y015700D01*
X010252Y015690D01*
X010153Y015592D01*
X007555Y012993D01*
X007100Y012993D01*
X007040Y013053D01*
X006948Y013091D01*
X006452Y013091D01*
X006360Y013053D01*
X006290Y012983D01*
X006252Y012891D01*
X006252Y012395D01*
X006290Y012304D01*
X006360Y012233D01*
X006452Y012195D01*
X006948Y012195D01*
X007040Y012233D01*
X006700Y012643D02*
X007700Y012643D01*
X010450Y015393D01*
X010700Y015393D01*
X012700Y015393D01*
X014700Y015393D01*
X015148Y015421D02*
X015195Y015421D01*
X015195Y015223D02*
X015148Y015223D01*
X015195Y015024D02*
X015081Y015024D01*
X015195Y014826D02*
X010377Y014826D01*
X010179Y014627D02*
X015195Y014627D01*
X015195Y014429D02*
X009980Y014429D01*
X009782Y014230D02*
X015195Y014230D01*
X015195Y014032D02*
X009583Y014032D01*
X009385Y013833D02*
X015195Y013833D01*
X015195Y013635D02*
X009186Y013635D01*
X008988Y013436D02*
X015195Y013436D01*
X015195Y013238D02*
X008789Y013238D01*
X008591Y013039D02*
X015195Y013039D01*
X015195Y012841D02*
X008392Y012841D01*
X008194Y012642D02*
X015195Y012642D01*
X015195Y012444D02*
X007995Y012444D01*
X007601Y013039D02*
X007054Y013039D01*
X007800Y013238D02*
X005898Y013238D01*
X005846Y013039D02*
X006346Y013039D01*
X006252Y012841D02*
X003220Y012841D01*
X003275Y012642D02*
X006252Y012642D01*
X006252Y012444D02*
X003260Y012444D01*
X003165Y012245D02*
X006348Y012245D01*
X005988Y013436D02*
X007998Y013436D01*
X008197Y013635D02*
X006186Y013635D01*
X006385Y013833D02*
X008395Y013833D01*
X008594Y014032D02*
X006583Y014032D01*
X006782Y014230D02*
X008792Y014230D01*
X008991Y014429D02*
X006980Y014429D01*
X007179Y014627D02*
X009189Y014627D01*
X009388Y014826D02*
X007377Y014826D01*
X007576Y015024D02*
X009586Y015024D01*
X009785Y015223D02*
X007774Y015223D01*
X007973Y015421D02*
X009983Y015421D01*
X010182Y015620D02*
X008171Y015620D01*
X008200Y016143D02*
X009950Y016143D01*
X010200Y016393D01*
X010200Y018643D01*
X010450Y018893D01*
X010700Y018893D01*
X010250Y019193D02*
X010150Y019193D01*
X009952Y019391D02*
X010448Y019391D01*
X010952Y019391D02*
X011448Y019391D01*
X011250Y019193D02*
X011150Y019193D01*
X011952Y019391D02*
X015195Y019391D01*
X015195Y019193D02*
X012150Y019193D01*
X012230Y018994D02*
X015195Y018994D01*
X015195Y018796D02*
X012230Y018796D01*
X012154Y018597D02*
X015195Y018597D01*
X015195Y018399D02*
X011955Y018399D01*
X012143Y018200D02*
X015195Y018200D01*
X015195Y018002D02*
X012230Y018002D01*
X012230Y017803D02*
X015195Y017803D01*
X015195Y017605D02*
X012161Y017605D01*
X011963Y017406D02*
X015195Y017406D01*
X015195Y017208D02*
X011050Y017208D01*
X011050Y017406D02*
X011437Y017406D01*
X011239Y017605D02*
X011161Y017605D01*
X010700Y017893D02*
X010700Y015393D01*
X011081Y015024D02*
X012319Y015024D01*
X013081Y015024D02*
X014319Y015024D01*
X014396Y015818D02*
X013004Y015818D01*
X012396Y015818D02*
X011050Y015818D01*
X011050Y016017D02*
X015195Y016017D01*
X015195Y016215D02*
X011050Y016215D01*
X011050Y016414D02*
X015195Y016414D01*
X015195Y016612D02*
X011050Y016612D01*
X011050Y016811D02*
X015195Y016811D01*
X015195Y017009D02*
X011050Y017009D01*
X010350Y016017D02*
X010318Y016017D01*
X010350Y015818D02*
X010080Y015818D01*
X009850Y016612D02*
X000705Y016612D01*
X000705Y016414D02*
X007976Y016414D01*
X007777Y016215D02*
X000705Y016215D01*
X000705Y016017D02*
X007579Y016017D01*
X007380Y015818D02*
X000705Y015818D01*
X000705Y015620D02*
X007182Y015620D01*
X006983Y015421D02*
X000705Y015421D01*
X000705Y015223D02*
X006785Y015223D01*
X006586Y015024D02*
X000705Y015024D01*
X000705Y014826D02*
X006388Y014826D01*
X006189Y014627D02*
X000705Y014627D01*
X000705Y014429D02*
X002295Y014429D01*
X002300Y014435D02*
X002251Y014368D01*
X002214Y014295D01*
X002188Y014216D01*
X002175Y014135D01*
X002175Y014102D01*
X002692Y014102D01*
X002692Y014618D01*
X002659Y014618D01*
X002577Y014605D01*
X002499Y014580D01*
X002425Y014542D01*
X002358Y014494D01*
X002300Y014435D01*
X002193Y014230D02*
X000705Y014230D01*
X000705Y014032D02*
X002178Y014032D01*
X002175Y014052D02*
X002188Y013970D01*
X002214Y013892D01*
X002251Y013818D01*
X002300Y013751D01*
X002358Y013693D01*
X002425Y013644D01*
X002499Y013607D01*
X002577Y013581D01*
X002659Y013569D01*
X002692Y013569D01*
X002692Y014085D01*
X002708Y014085D01*
X002708Y013569D01*
X002741Y013569D01*
X002823Y013581D01*
X002901Y013607D01*
X002975Y013644D01*
X003042Y013693D01*
X003100Y013751D01*
X003149Y013818D01*
X003186Y013892D01*
X003212Y013970D01*
X003225Y014052D01*
X003225Y014085D01*
X002708Y014085D01*
X002708Y014102D01*
X002692Y014102D01*
X002692Y014085D01*
X002175Y014085D01*
X002175Y014052D01*
X002243Y013833D02*
X000705Y013833D01*
X000705Y013635D02*
X002444Y013635D01*
X002692Y013635D02*
X002708Y013635D01*
X002692Y013833D02*
X002708Y013833D01*
X002692Y014032D02*
X002708Y014032D01*
X002708Y014102D02*
X003225Y014102D01*
X003225Y014135D01*
X003212Y014216D01*
X003186Y014295D01*
X003149Y014368D01*
X003100Y014435D01*
X003042Y014494D01*
X002975Y014542D01*
X002901Y014580D01*
X002823Y014605D01*
X002741Y014618D01*
X002708Y014618D01*
X002708Y014102D01*
X002692Y014230D02*
X002708Y014230D01*
X002692Y014429D02*
X002708Y014429D01*
X003105Y014429D02*
X005991Y014429D01*
X005792Y014230D02*
X003207Y014230D01*
X003222Y014032D02*
X005594Y014032D01*
X005183Y013833D02*
X003157Y013833D01*
X002956Y013635D02*
X005002Y013635D01*
X005002Y013436D02*
X000705Y013436D01*
X000705Y013238D02*
X005002Y013238D01*
X005054Y013039D02*
X003067Y013039D01*
X002333Y013039D02*
X000705Y013039D01*
X000705Y012841D02*
X002180Y012841D01*
X002125Y012642D02*
X000705Y012642D01*
X000705Y012444D02*
X002140Y012444D01*
X002235Y012245D02*
X000705Y012245D01*
X000705Y012047D02*
X002517Y012047D01*
X003155Y011451D02*
X015195Y011451D01*
X015195Y011253D02*
X003256Y011253D01*
X003275Y011054D02*
X015195Y011054D01*
X015195Y010856D02*
X013902Y010856D01*
X013994Y010818D02*
X013793Y010901D01*
X013575Y010901D01*
X013374Y010818D01*
X013221Y010664D01*
X013137Y010463D01*
X013137Y010245D01*
X013221Y010044D01*
X013374Y009890D01*
X013575Y009807D01*
X013793Y009807D01*
X013994Y009890D01*
X014148Y010044D01*
X014231Y010245D01*
X014231Y010463D01*
X014148Y010664D01*
X013994Y010818D01*
X014150Y010657D02*
X015195Y010657D01*
X015195Y010459D02*
X014231Y010459D01*
X014231Y010260D02*
X015195Y010260D01*
X015195Y010062D02*
X014155Y010062D01*
X013929Y009863D02*
X015195Y009863D01*
X015195Y009665D02*
X000705Y009665D01*
X000705Y009863D02*
X011637Y009863D01*
X011599Y009869D02*
X011677Y009857D01*
X011716Y009857D01*
X011716Y010354D01*
X011716Y010354D01*
X011219Y010354D01*
X011219Y010315D01*
X011231Y010238D01*
X011255Y010163D01*
X011291Y010094D01*
X011337Y010030D01*
X011392Y009975D01*
X011455Y009929D01*
X011525Y009893D01*
X011599Y009869D01*
X011716Y009863D02*
X011716Y009863D01*
X011794Y009863D02*
X013440Y009863D01*
X013213Y010062D02*
X012118Y010062D01*
X012204Y010260D02*
X013137Y010260D01*
X013137Y010459D02*
X012202Y010459D01*
X012109Y010657D02*
X013218Y010657D01*
X013467Y010856D02*
X003224Y010856D01*
X005450Y013393D02*
X008200Y016143D01*
X007963Y017406D02*
X008437Y017406D01*
X008239Y017605D02*
X008161Y017605D01*
X007437Y017406D02*
X006963Y017406D01*
X007161Y017605D02*
X007239Y017605D01*
X006437Y017406D02*
X005963Y017406D01*
X006161Y017605D02*
X006239Y017605D01*
X005437Y017406D02*
X004963Y017406D01*
X005161Y017605D02*
X005239Y017605D01*
X004437Y017406D02*
X000705Y017406D01*
X000705Y017208D02*
X009850Y017208D01*
X009850Y017009D02*
X000705Y017009D01*
X000705Y016811D02*
X009850Y016811D01*
X009437Y017406D02*
X008963Y017406D01*
X009161Y017605D02*
X009239Y017605D01*
X009250Y019193D02*
X009150Y019193D01*
X008952Y019391D02*
X009448Y019391D01*
X008448Y019391D02*
X007952Y019391D01*
X008150Y019193D02*
X008250Y019193D01*
X007448Y019391D02*
X006952Y019391D01*
X007150Y019193D02*
X007250Y019193D01*
X006448Y019391D02*
X005952Y019391D01*
X006150Y019193D02*
X006250Y019193D01*
X005448Y019391D02*
X000705Y019391D01*
X000705Y019193D02*
X004321Y019193D01*
X004220Y018994D02*
X000705Y018994D01*
X000705Y018796D02*
X004220Y018796D01*
X004220Y018893D02*
X004700Y018893D01*
X004700Y018893D01*
X004220Y018893D01*
X004317Y018597D02*
X000705Y018597D01*
X000705Y018399D02*
X004456Y018399D01*
X004257Y018200D02*
X000705Y018200D01*
X000705Y018002D02*
X004170Y018002D01*
X004170Y017803D02*
X000705Y017803D01*
X000705Y017605D02*
X004239Y017605D01*
X004700Y018893D02*
X004700Y019373D01*
X004700Y018893D01*
X004700Y018893D01*
X004700Y018994D02*
X004700Y018994D01*
X004700Y019193D02*
X004700Y019193D01*
X005079Y019193D02*
X005250Y019193D01*
X000705Y019590D02*
X015195Y019590D01*
X015195Y019788D02*
X000705Y019788D01*
X000705Y019987D02*
X015195Y019987D01*
X015195Y020185D02*
X000705Y020185D01*
X000705Y020384D02*
X015195Y020384D01*
X015195Y015818D02*
X015004Y015818D01*
X015148Y015620D02*
X015195Y015620D01*
X011716Y010657D02*
X011716Y010657D01*
X011716Y010459D02*
X011716Y010459D01*
X011716Y010260D02*
X011716Y010260D01*
X011716Y010062D02*
X011716Y010062D01*
X011314Y010062D02*
X000705Y010062D01*
X000705Y010260D02*
X011228Y010260D01*
X011607Y008440D02*
X011406Y008357D01*
X011252Y008203D01*
X011169Y008002D01*
X011169Y007785D01*
X011252Y007584D01*
X011406Y007430D01*
X011607Y007346D01*
X011825Y007346D01*
X012026Y007430D01*
X012179Y007584D01*
X012235Y007717D01*
X012240Y007703D01*
X012275Y007633D01*
X012321Y007570D01*
X012376Y007514D01*
X012440Y007468D01*
X012509Y007433D01*
X012584Y007409D01*
X012661Y007396D01*
X012700Y007396D01*
X012739Y007396D01*
X012816Y007409D01*
X012891Y007433D01*
X012960Y007468D01*
X013024Y007514D01*
X013079Y007570D01*
X013125Y007633D01*
X013160Y007703D01*
X013165Y007717D01*
X013221Y007584D01*
X013374Y007430D01*
X013575Y007346D01*
X013793Y007346D01*
X013994Y007430D01*
X014148Y007584D01*
X014231Y007785D01*
X014231Y008002D01*
X014148Y008203D01*
X013994Y008357D01*
X013793Y008440D01*
X013575Y008440D01*
X013374Y008357D01*
X013221Y008203D01*
X013165Y008069D01*
X013160Y008084D01*
X013125Y008154D01*
X013079Y008217D01*
X013024Y008272D01*
X012960Y008318D01*
X012891Y008354D01*
X012816Y008378D01*
X012739Y008390D01*
X012700Y008390D01*
X012700Y007893D01*
X012700Y007396D01*
X012700Y007893D01*
X012700Y007893D01*
X012700Y007893D01*
X012700Y008390D01*
X012661Y008390D01*
X012584Y008378D01*
X012509Y008354D01*
X012440Y008318D01*
X012376Y008272D01*
X012321Y008217D01*
X012275Y008154D01*
X012240Y008084D01*
X012235Y008069D01*
X012179Y008203D01*
X012026Y008357D01*
X011825Y008440D01*
X011607Y008440D01*
X011324Y008275D02*
X000705Y008275D01*
X000705Y008077D02*
X011200Y008077D01*
X011169Y007878D02*
X000705Y007878D01*
X000705Y007680D02*
X011212Y007680D01*
X011354Y007481D02*
X000705Y007481D01*
X000705Y007283D02*
X015195Y007283D01*
X015195Y007481D02*
X014046Y007481D01*
X014188Y007680D02*
X015195Y007680D01*
X015195Y007878D02*
X014231Y007878D01*
X014200Y008077D02*
X015195Y008077D01*
X015195Y008275D02*
X014076Y008275D01*
X013293Y008275D02*
X013020Y008275D01*
X013163Y008077D02*
X013168Y008077D01*
X013149Y007680D02*
X013181Y007680D01*
X013323Y007481D02*
X012978Y007481D01*
X012700Y007481D02*
X012700Y007481D01*
X012700Y007680D02*
X012700Y007680D01*
X012700Y007878D02*
X012700Y007878D01*
X012700Y008077D02*
X012700Y008077D01*
X012700Y008275D02*
X012700Y008275D01*
X012380Y008275D02*
X012107Y008275D01*
X012232Y008077D02*
X012237Y008077D01*
X012219Y007680D02*
X012251Y007680D01*
X012422Y007481D02*
X012077Y007481D01*
X015195Y007084D02*
X000705Y007084D01*
X000705Y006886D02*
X015195Y006886D01*
X015195Y008474D02*
X000705Y008474D01*
X000705Y008672D02*
X015195Y008672D01*
X015195Y008871D02*
X000705Y008871D01*
X000705Y009069D02*
X015195Y009069D01*
X015195Y009268D02*
X000705Y009268D01*
X000705Y009466D02*
X015195Y009466D01*
D15*
X014700Y015393D03*
X012700Y015393D03*
X010700Y015393D03*
X006700Y012643D03*
X005450Y013393D03*
M02*
