%
M48
M72
T01C0.0236
T02C0.0360
T03C0.0394
T04C0.0433
%
T01
X6700Y12643
X5450Y13393
X10700Y15393
X12700Y15393
X14700Y15393
T02
X11700Y17893
X11700Y18893
X10700Y18893
X10700Y17893
X9700Y17893
X9700Y18893
X8700Y18893
X8700Y17893
X7700Y17893
X7700Y18893
X6700Y18893
X6700Y17893
X5700Y17893
X5700Y18893
X4700Y18893
X4700Y17893
T03
X11716Y10354
X11716Y7893
X12700Y7893
X13684Y7893
X13684Y10354
T04
X2700Y11093
X2700Y12593
X2700Y14093
M30
