%
M48
M72
T01C0.0354
T02C0.0360
T03C0.0472
T04C0.0787
T05C0.1160
%
T01
X10848Y5330
X11439Y5330
X12030Y5330
X12620Y5330
X13211Y5330
X13801Y5330
X14392Y5330
X14982Y5330
X15573Y5330
X16163Y5330
T02
X16156Y11193
X17156Y11193
X17156Y12193
X16156Y12193
X15156Y12193
X14156Y12193
X14156Y11193
X15156Y11193
X13156Y11193
X13156Y12193
X12156Y12193
X11156Y12193
X11156Y11193
X12156Y11193
X10156Y11193
X10156Y12193
T03
X5593Y14424
X5593Y5330
X21419Y5330
X21419Y14424
T04
X20317Y6097
X6695Y6097
T05
X6010Y4393
X6010Y15393
X21010Y15393
X21010Y4393
M30
