G75*
%MOIN*%
%OFA0B0*%
%FSLAX24Y24*%
%IPPOS*%
%LPD*%
%AMOC8*
5,1,8,0,0,1.08239X$1,22.5*
%
%ADD10C,0.1240*%
%ADD11C,0.0574*%
%ADD12C,0.1080*%
%ADD13C,0.0692*%
%ADD14OC8,0.0580*%
D10*
X006010Y004393D03*
X006010Y015393D03*
X021010Y015393D03*
X021010Y004393D03*
D11*
X016163Y005330D02*
X016163Y005824D01*
X015573Y005824D02*
X015573Y005330D01*
X014982Y005330D02*
X014982Y005824D01*
X014392Y005824D02*
X014392Y005330D01*
X013801Y005330D02*
X013801Y005824D01*
X013211Y005824D02*
X013211Y005330D01*
X012620Y005330D02*
X012620Y005824D01*
X012030Y005824D02*
X012030Y005330D01*
X011439Y005330D02*
X011439Y005824D01*
X010848Y005824D02*
X010848Y005330D01*
D12*
X006695Y006097D03*
X020317Y006097D03*
D13*
X021419Y005330D03*
X021419Y014424D03*
X005593Y014424D03*
X005593Y005330D03*
D14*
X010156Y011193D03*
X011156Y011193D03*
X012156Y011193D03*
X013156Y011193D03*
X014156Y011193D03*
X015156Y011193D03*
X016156Y011193D03*
X017156Y011193D03*
X017156Y012193D03*
X016156Y012193D03*
X015156Y012193D03*
X014156Y012193D03*
X013156Y012193D03*
X012156Y012193D03*
X011156Y012193D03*
X010156Y012193D03*
M02*
