G75*
%MOIN*%
%OFA0B0*%
%FSLAX24Y24*%
%IPPOS*%
%LPD*%
%AMOC8*
5,1,8,0,0,1.08239X$1,22.5*
%
%ADD10C,0.0010*%
%ADD11C,0.0000*%
%ADD12C,0.0060*%
%ADD13C,0.0020*%
%ADD14C,0.0070*%
%ADD15C,0.0050*%
%ADD16C,0.0030*%
D10*
X005260Y003643D02*
X005260Y016143D01*
X021760Y016143D01*
X021760Y003643D01*
X005260Y003643D01*
D11*
X005430Y004393D02*
X005432Y004441D01*
X005438Y004488D01*
X005448Y004535D01*
X005461Y004581D01*
X005479Y004626D01*
X005500Y004669D01*
X005524Y004710D01*
X005552Y004749D01*
X005583Y004786D01*
X005617Y004820D01*
X005654Y004851D01*
X005693Y004879D01*
X005734Y004903D01*
X005777Y004924D01*
X005822Y004942D01*
X005868Y004955D01*
X005915Y004965D01*
X005962Y004971D01*
X006010Y004973D01*
X006058Y004971D01*
X006105Y004965D01*
X006152Y004955D01*
X006198Y004942D01*
X006243Y004924D01*
X006286Y004903D01*
X006327Y004879D01*
X006366Y004851D01*
X006403Y004820D01*
X006437Y004786D01*
X006468Y004749D01*
X006496Y004710D01*
X006520Y004669D01*
X006541Y004626D01*
X006559Y004581D01*
X006572Y004535D01*
X006582Y004488D01*
X006588Y004441D01*
X006590Y004393D01*
X006588Y004345D01*
X006582Y004298D01*
X006572Y004251D01*
X006559Y004205D01*
X006541Y004160D01*
X006520Y004117D01*
X006496Y004076D01*
X006468Y004037D01*
X006437Y004000D01*
X006403Y003966D01*
X006366Y003935D01*
X006327Y003907D01*
X006286Y003883D01*
X006243Y003862D01*
X006198Y003844D01*
X006152Y003831D01*
X006105Y003821D01*
X006058Y003815D01*
X006010Y003813D01*
X005962Y003815D01*
X005915Y003821D01*
X005868Y003831D01*
X005822Y003844D01*
X005777Y003862D01*
X005734Y003883D01*
X005693Y003907D01*
X005654Y003935D01*
X005617Y003966D01*
X005583Y004000D01*
X005552Y004037D01*
X005524Y004076D01*
X005500Y004117D01*
X005479Y004160D01*
X005461Y004205D01*
X005448Y004251D01*
X005438Y004298D01*
X005432Y004345D01*
X005430Y004393D01*
X005430Y015393D02*
X005432Y015441D01*
X005438Y015488D01*
X005448Y015535D01*
X005461Y015581D01*
X005479Y015626D01*
X005500Y015669D01*
X005524Y015710D01*
X005552Y015749D01*
X005583Y015786D01*
X005617Y015820D01*
X005654Y015851D01*
X005693Y015879D01*
X005734Y015903D01*
X005777Y015924D01*
X005822Y015942D01*
X005868Y015955D01*
X005915Y015965D01*
X005962Y015971D01*
X006010Y015973D01*
X006058Y015971D01*
X006105Y015965D01*
X006152Y015955D01*
X006198Y015942D01*
X006243Y015924D01*
X006286Y015903D01*
X006327Y015879D01*
X006366Y015851D01*
X006403Y015820D01*
X006437Y015786D01*
X006468Y015749D01*
X006496Y015710D01*
X006520Y015669D01*
X006541Y015626D01*
X006559Y015581D01*
X006572Y015535D01*
X006582Y015488D01*
X006588Y015441D01*
X006590Y015393D01*
X006588Y015345D01*
X006582Y015298D01*
X006572Y015251D01*
X006559Y015205D01*
X006541Y015160D01*
X006520Y015117D01*
X006496Y015076D01*
X006468Y015037D01*
X006437Y015000D01*
X006403Y014966D01*
X006366Y014935D01*
X006327Y014907D01*
X006286Y014883D01*
X006243Y014862D01*
X006198Y014844D01*
X006152Y014831D01*
X006105Y014821D01*
X006058Y014815D01*
X006010Y014813D01*
X005962Y014815D01*
X005915Y014821D01*
X005868Y014831D01*
X005822Y014844D01*
X005777Y014862D01*
X005734Y014883D01*
X005693Y014907D01*
X005654Y014935D01*
X005617Y014966D01*
X005583Y015000D01*
X005552Y015037D01*
X005524Y015076D01*
X005500Y015117D01*
X005479Y015160D01*
X005461Y015205D01*
X005448Y015251D01*
X005438Y015298D01*
X005432Y015345D01*
X005430Y015393D01*
X020430Y015393D02*
X020432Y015441D01*
X020438Y015488D01*
X020448Y015535D01*
X020461Y015581D01*
X020479Y015626D01*
X020500Y015669D01*
X020524Y015710D01*
X020552Y015749D01*
X020583Y015786D01*
X020617Y015820D01*
X020654Y015851D01*
X020693Y015879D01*
X020734Y015903D01*
X020777Y015924D01*
X020822Y015942D01*
X020868Y015955D01*
X020915Y015965D01*
X020962Y015971D01*
X021010Y015973D01*
X021058Y015971D01*
X021105Y015965D01*
X021152Y015955D01*
X021198Y015942D01*
X021243Y015924D01*
X021286Y015903D01*
X021327Y015879D01*
X021366Y015851D01*
X021403Y015820D01*
X021437Y015786D01*
X021468Y015749D01*
X021496Y015710D01*
X021520Y015669D01*
X021541Y015626D01*
X021559Y015581D01*
X021572Y015535D01*
X021582Y015488D01*
X021588Y015441D01*
X021590Y015393D01*
X021588Y015345D01*
X021582Y015298D01*
X021572Y015251D01*
X021559Y015205D01*
X021541Y015160D01*
X021520Y015117D01*
X021496Y015076D01*
X021468Y015037D01*
X021437Y015000D01*
X021403Y014966D01*
X021366Y014935D01*
X021327Y014907D01*
X021286Y014883D01*
X021243Y014862D01*
X021198Y014844D01*
X021152Y014831D01*
X021105Y014821D01*
X021058Y014815D01*
X021010Y014813D01*
X020962Y014815D01*
X020915Y014821D01*
X020868Y014831D01*
X020822Y014844D01*
X020777Y014862D01*
X020734Y014883D01*
X020693Y014907D01*
X020654Y014935D01*
X020617Y014966D01*
X020583Y015000D01*
X020552Y015037D01*
X020524Y015076D01*
X020500Y015117D01*
X020479Y015160D01*
X020461Y015205D01*
X020448Y015251D01*
X020438Y015298D01*
X020432Y015345D01*
X020430Y015393D01*
X020430Y004393D02*
X020432Y004441D01*
X020438Y004488D01*
X020448Y004535D01*
X020461Y004581D01*
X020479Y004626D01*
X020500Y004669D01*
X020524Y004710D01*
X020552Y004749D01*
X020583Y004786D01*
X020617Y004820D01*
X020654Y004851D01*
X020693Y004879D01*
X020734Y004903D01*
X020777Y004924D01*
X020822Y004942D01*
X020868Y004955D01*
X020915Y004965D01*
X020962Y004971D01*
X021010Y004973D01*
X021058Y004971D01*
X021105Y004965D01*
X021152Y004955D01*
X021198Y004942D01*
X021243Y004924D01*
X021286Y004903D01*
X021327Y004879D01*
X021366Y004851D01*
X021403Y004820D01*
X021437Y004786D01*
X021468Y004749D01*
X021496Y004710D01*
X021520Y004669D01*
X021541Y004626D01*
X021559Y004581D01*
X021572Y004535D01*
X021582Y004488D01*
X021588Y004441D01*
X021590Y004393D01*
X021588Y004345D01*
X021582Y004298D01*
X021572Y004251D01*
X021559Y004205D01*
X021541Y004160D01*
X021520Y004117D01*
X021496Y004076D01*
X021468Y004037D01*
X021437Y004000D01*
X021403Y003966D01*
X021366Y003935D01*
X021327Y003907D01*
X021286Y003883D01*
X021243Y003862D01*
X021198Y003844D01*
X021152Y003831D01*
X021105Y003821D01*
X021058Y003815D01*
X021010Y003813D01*
X020962Y003815D01*
X020915Y003821D01*
X020868Y003831D01*
X020822Y003844D01*
X020777Y003862D01*
X020734Y003883D01*
X020693Y003907D01*
X020654Y003935D01*
X020617Y003966D01*
X020583Y004000D01*
X020552Y004037D01*
X020524Y004076D01*
X020500Y004117D01*
X020479Y004160D01*
X020461Y004205D01*
X020448Y004251D01*
X020438Y004298D01*
X020432Y004345D01*
X020430Y004393D01*
D12*
X019156Y009943D02*
X017306Y009943D01*
X017156Y010143D01*
X016956Y010143D01*
X016356Y010143D01*
X016156Y010143D01*
X016006Y009943D01*
X014456Y009943D01*
X014456Y010343D01*
X014456Y010443D01*
X016356Y010443D01*
X016956Y010443D01*
X016956Y010343D01*
X016956Y010143D01*
X016956Y010443D02*
X018656Y010443D01*
X018656Y012943D01*
X008656Y012943D01*
X008656Y010443D01*
X011356Y010443D01*
X011956Y010443D01*
X011956Y010343D01*
X011956Y010143D01*
X012156Y010143D01*
X012306Y009943D01*
X012856Y009943D01*
X012856Y010343D01*
X012856Y010443D01*
X011956Y010443D01*
X011956Y010143D02*
X011356Y010143D01*
X011156Y010143D01*
X011006Y009943D01*
X010456Y009943D01*
X010456Y009993D01*
X009856Y009993D01*
X009856Y009943D01*
X008156Y009943D01*
X008156Y013443D01*
X008656Y013443D01*
X008656Y013543D01*
X009156Y013543D01*
X009156Y013443D01*
X013406Y013443D01*
X013406Y013543D01*
X013906Y013543D01*
X013906Y013443D01*
X018156Y013443D01*
X018156Y013543D01*
X018656Y013543D01*
X018656Y013443D01*
X019156Y013443D01*
X019156Y009943D01*
X016356Y010143D02*
X016356Y010343D01*
X016356Y010443D01*
X014456Y010443D02*
X014456Y010743D01*
X012856Y010743D01*
X012856Y010443D01*
X012856Y009943D02*
X014456Y009943D01*
X011356Y010143D02*
X011356Y010343D01*
X011356Y010443D01*
D13*
X011356Y010343D02*
X008556Y010343D01*
X008556Y013043D01*
X018756Y013043D01*
X018756Y010343D01*
X016956Y010343D01*
X016356Y010343D02*
X014456Y010343D01*
X012856Y010343D02*
X011956Y010343D01*
D14*
X009900Y013728D02*
X009480Y013728D01*
X009690Y013728D02*
X009690Y014359D01*
X009480Y014149D01*
X009255Y014359D02*
X009255Y013938D01*
X009045Y013728D01*
X008835Y013938D01*
X008835Y014359D01*
X008611Y014254D02*
X008506Y014359D01*
X008296Y014359D01*
X008191Y014254D01*
X008191Y014149D01*
X008296Y014044D01*
X008506Y014044D01*
X008611Y013938D01*
X008611Y013833D01*
X008506Y013728D01*
X008296Y013728D01*
X008191Y013833D01*
D15*
X009256Y012419D02*
X009181Y012344D01*
X009256Y012419D02*
X009406Y012419D01*
X009481Y012344D01*
X009481Y012269D01*
X009181Y011968D01*
X009481Y011968D01*
X009331Y011419D02*
X009331Y010968D01*
X009181Y010968D02*
X009481Y010968D01*
X009181Y011269D02*
X009331Y011419D01*
X013281Y010419D02*
X013431Y010569D01*
X013431Y010118D01*
X013281Y010118D02*
X013581Y010118D01*
X013741Y010193D02*
X013816Y010118D01*
X013966Y010118D01*
X014041Y010193D01*
X014041Y010268D01*
X013966Y010343D01*
X013741Y010343D01*
X013741Y010193D01*
X013741Y010343D02*
X013891Y010494D01*
X014041Y010569D01*
D16*
X015524Y008500D02*
X015470Y008446D01*
X015470Y008339D01*
X015524Y008286D01*
X015524Y008177D02*
X015470Y008124D01*
X015470Y008017D01*
X015524Y007964D01*
X015737Y007964D01*
X015791Y008017D01*
X015791Y008124D01*
X015737Y008177D01*
X015791Y008286D02*
X015577Y008500D01*
X015524Y008500D01*
X015791Y008500D02*
X015791Y008286D01*
X015800Y007729D02*
X015693Y007622D01*
X015584Y007675D02*
X015531Y007729D01*
X015424Y007729D01*
X015371Y007675D01*
X015371Y007462D01*
X015424Y007408D01*
X015531Y007408D01*
X015584Y007462D01*
X015693Y007408D02*
X015906Y007408D01*
X015800Y007408D02*
X015800Y007729D01*
M02*
