G75*
%MOIN*%
%OFA0B0*%
%FSLAX24Y24*%
%IPPOS*%
%LPD*%
%AMOC8*
5,1,8,0,0,1.08239X$1,22.5*
%
%ADD10C,0.0494*%
%ADD11C,0.1000*%
%ADD12C,0.0612*%
%ADD13OC8,0.0500*%
%ADD14C,0.0200*%
D10*
X010848Y005330D02*
X010848Y005824D01*
X011439Y005824D02*
X011439Y005330D01*
X012030Y005330D02*
X012030Y005824D01*
X012620Y005824D02*
X012620Y005330D01*
X013211Y005330D02*
X013211Y005824D01*
X013801Y005824D02*
X013801Y005330D01*
X014392Y005330D02*
X014392Y005824D01*
X014982Y005824D02*
X014982Y005330D01*
X015573Y005330D02*
X015573Y005824D01*
X016163Y005824D02*
X016163Y005330D01*
D11*
X020317Y006097D03*
X006695Y006097D03*
D12*
X005593Y005330D03*
X005593Y014424D03*
X021419Y014424D03*
X021419Y005330D03*
D13*
X017156Y011193D03*
X017156Y012193D03*
X016156Y012193D03*
X016156Y011193D03*
X015156Y011193D03*
X014156Y011193D03*
X014156Y012193D03*
X015156Y012193D03*
X013156Y012193D03*
X013156Y011193D03*
X012156Y011193D03*
X011156Y011193D03*
X011156Y012193D03*
X012156Y012193D03*
X010156Y012193D03*
X010156Y011193D03*
D14*
X010473Y011583D02*
X010838Y011583D01*
X010948Y011693D02*
X010656Y011400D01*
X010363Y011693D01*
X009948Y011693D01*
X009656Y011400D01*
X009656Y010986D01*
X009948Y010693D01*
X010363Y010693D01*
X010656Y010986D01*
X010948Y010693D01*
X011363Y010693D01*
X011656Y010986D01*
X011948Y010693D01*
X012363Y010693D01*
X012656Y010986D01*
X012948Y010693D01*
X013363Y010693D01*
X013656Y010986D01*
X013948Y010693D01*
X014363Y010693D01*
X014656Y010986D01*
X014656Y011400D01*
X014363Y011693D01*
X013948Y011693D01*
X013656Y011400D01*
X013363Y011693D01*
X012948Y011693D01*
X012656Y011400D01*
X012363Y011693D01*
X011948Y011693D01*
X011656Y011400D01*
X011363Y011693D01*
X010948Y011693D01*
X011363Y011693D01*
X011656Y011986D01*
X011948Y011693D01*
X012363Y011693D01*
X012656Y011986D01*
X012948Y011693D01*
X013363Y011693D01*
X013656Y011986D01*
X013948Y011693D01*
X014363Y011693D01*
X014656Y011986D01*
X014948Y011693D01*
X015363Y011693D01*
X015656Y011986D01*
X015948Y011693D01*
X015656Y011400D01*
X015656Y010986D01*
X015948Y010693D01*
X016363Y010693D01*
X016656Y010986D01*
X016948Y010693D01*
X017363Y010693D01*
X017656Y010986D01*
X017656Y011400D01*
X017363Y011693D01*
X016948Y011693D01*
X016656Y011400D01*
X016656Y010986D01*
X016656Y011400D01*
X016363Y011693D01*
X015948Y011693D01*
X016363Y011693D01*
X016656Y011986D01*
X016948Y011693D01*
X017363Y011693D01*
X017656Y011986D01*
X017656Y012400D01*
X017363Y012693D01*
X016948Y012693D01*
X016656Y012400D01*
X016656Y011986D01*
X016656Y012400D01*
X016363Y012693D01*
X015948Y012693D01*
X015656Y012400D01*
X015656Y011986D01*
X015656Y012400D01*
X015363Y012693D01*
X014948Y012693D01*
X014656Y012400D01*
X014656Y011986D01*
X014656Y012400D01*
X014363Y012693D01*
X013948Y012693D01*
X013656Y012400D01*
X013363Y012693D01*
X012948Y012693D01*
X012656Y012400D01*
X012363Y012693D01*
X011948Y012693D01*
X011656Y012400D01*
X011363Y012693D01*
X010948Y012693D01*
X010656Y012400D01*
X010363Y012693D01*
X009948Y012693D01*
X009656Y012400D01*
X009656Y011986D01*
X009948Y011693D01*
X010363Y011693D01*
X010656Y011986D01*
X010948Y011693D01*
X010860Y011782D02*
X010451Y011782D01*
X010650Y011980D02*
X010661Y011980D01*
X010656Y011986D02*
X010656Y012400D01*
X010656Y011986D01*
X010656Y012179D02*
X010656Y012179D01*
X010656Y012377D02*
X010656Y012377D01*
X010480Y012576D02*
X010831Y012576D01*
X011480Y012576D02*
X011831Y012576D01*
X011656Y012400D02*
X011656Y011986D01*
X011656Y012400D01*
X011656Y012377D02*
X011656Y012377D01*
X011656Y012179D02*
X011656Y012179D01*
X011650Y011980D02*
X011661Y011980D01*
X011860Y011782D02*
X011451Y011782D01*
X011473Y011583D02*
X011838Y011583D01*
X011656Y011400D02*
X011656Y010986D01*
X011656Y011400D01*
X011656Y011385D02*
X011656Y011385D01*
X011656Y011186D02*
X011656Y011186D01*
X011656Y010988D02*
X011656Y010988D01*
X011852Y010789D02*
X011459Y010789D01*
X010852Y010789D02*
X010459Y010789D01*
X010656Y010986D02*
X010656Y011400D01*
X010656Y010986D01*
X010656Y010988D02*
X010656Y010988D01*
X010656Y011186D02*
X010656Y011186D01*
X010656Y011385D02*
X010656Y011385D01*
X009838Y011583D02*
X005765Y011583D01*
X005765Y011385D02*
X009656Y011385D01*
X009656Y011186D02*
X005765Y011186D01*
X005765Y010988D02*
X009656Y010988D01*
X009852Y010789D02*
X005765Y010789D01*
X005765Y010591D02*
X021255Y010591D01*
X021255Y010789D02*
X017459Y010789D01*
X017656Y010988D02*
X021255Y010988D01*
X021255Y011186D02*
X017656Y011186D01*
X017656Y011385D02*
X021255Y011385D01*
X021255Y011583D02*
X017473Y011583D01*
X017451Y011782D02*
X021255Y011782D01*
X021255Y011980D02*
X017650Y011980D01*
X017656Y012179D02*
X021255Y012179D01*
X021255Y012377D02*
X017656Y012377D01*
X017480Y012576D02*
X021255Y012576D01*
X021255Y012774D02*
X005765Y012774D01*
X005765Y012576D02*
X009831Y012576D01*
X009656Y012377D02*
X005765Y012377D01*
X005765Y012179D02*
X009656Y012179D01*
X009661Y011980D02*
X005765Y011980D01*
X005765Y011782D02*
X009860Y011782D01*
X012451Y011782D02*
X012860Y011782D01*
X012838Y011583D02*
X012473Y011583D01*
X012656Y011400D02*
X012656Y010986D01*
X012656Y011400D01*
X012656Y011385D02*
X012656Y011385D01*
X012656Y011186D02*
X012656Y011186D01*
X012656Y010988D02*
X012656Y010988D01*
X012852Y010789D02*
X012459Y010789D01*
X013459Y010789D02*
X013852Y010789D01*
X013656Y010986D02*
X013656Y011400D01*
X013656Y010986D01*
X013656Y010988D02*
X013656Y010988D01*
X013656Y011186D02*
X013656Y011186D01*
X013656Y011385D02*
X013656Y011385D01*
X013838Y011583D02*
X013473Y011583D01*
X013451Y011782D02*
X013860Y011782D01*
X013661Y011980D02*
X013650Y011980D01*
X013656Y011986D02*
X013656Y012400D01*
X013656Y011986D01*
X013656Y012179D02*
X013656Y012179D01*
X013656Y012377D02*
X013656Y012377D01*
X013480Y012576D02*
X013831Y012576D01*
X014480Y012576D02*
X014831Y012576D01*
X014656Y012377D02*
X014656Y012377D01*
X014656Y012179D02*
X014656Y012179D01*
X014650Y011980D02*
X014661Y011980D01*
X014860Y011782D02*
X014451Y011782D01*
X014473Y011583D02*
X014909Y011583D01*
X014969Y011643D02*
X014706Y011380D01*
X014706Y011193D01*
X014706Y011007D01*
X014969Y010743D01*
X015156Y010743D01*
X015342Y010743D01*
X015606Y011007D01*
X015606Y011193D01*
X015156Y011193D01*
X015156Y011193D01*
X015156Y010743D01*
X015156Y011193D01*
X015156Y011193D01*
X015606Y011193D01*
X015606Y011380D01*
X015342Y011643D01*
X015156Y011643D01*
X015156Y011193D01*
X015156Y011193D01*
X014706Y011193D01*
X015156Y011193D01*
X015156Y011193D01*
X015156Y011643D01*
X014969Y011643D01*
X015156Y011583D02*
X015156Y011583D01*
X015156Y011385D02*
X015156Y011385D01*
X015156Y011186D02*
X015156Y011186D01*
X015156Y010988D02*
X015156Y010988D01*
X015156Y010789D02*
X015156Y010789D01*
X015388Y010789D02*
X015852Y010789D01*
X015656Y010988D02*
X015586Y010988D01*
X015606Y011186D02*
X015656Y011186D01*
X015656Y011385D02*
X015600Y011385D01*
X015402Y011583D02*
X015838Y011583D01*
X015860Y011782D02*
X015451Y011782D01*
X015650Y011980D02*
X015661Y011980D01*
X015656Y012179D02*
X015656Y012179D01*
X015656Y012377D02*
X015656Y012377D01*
X015480Y012576D02*
X015831Y012576D01*
X016480Y012576D02*
X016831Y012576D01*
X016656Y012377D02*
X016656Y012377D01*
X016656Y012179D02*
X016656Y012179D01*
X016650Y011980D02*
X016661Y011980D01*
X016860Y011782D02*
X016451Y011782D01*
X016473Y011583D02*
X016838Y011583D01*
X016656Y011385D02*
X016656Y011385D01*
X016656Y011186D02*
X016656Y011186D01*
X016656Y010988D02*
X016656Y010988D01*
X016852Y010789D02*
X016459Y010789D01*
X014923Y010789D02*
X014459Y010789D01*
X014656Y010988D02*
X014725Y010988D01*
X014706Y011186D02*
X014656Y011186D01*
X014656Y011385D02*
X014711Y011385D01*
X012831Y012576D02*
X012480Y012576D01*
X012656Y012400D02*
X012656Y011986D01*
X012656Y012400D01*
X012656Y012377D02*
X012656Y012377D01*
X012656Y012179D02*
X012656Y012179D01*
X012650Y011980D02*
X012661Y011980D01*
X007016Y014976D02*
X007090Y015251D01*
X007090Y015535D01*
X007062Y015638D01*
X019957Y015638D01*
X019930Y015535D01*
X019930Y015251D01*
X020003Y014976D01*
X020145Y014730D01*
X020346Y014529D01*
X020593Y014387D01*
X020863Y014314D01*
X020863Y014313D01*
X020948Y014109D01*
X021104Y013952D01*
X021255Y013890D01*
X021255Y005863D01*
X021104Y005801D01*
X020948Y005645D01*
X020877Y005473D01*
X020867Y005473D01*
X020593Y005400D01*
X020742Y005461D01*
X020953Y005672D01*
X021067Y005948D01*
X021067Y006246D01*
X020953Y006522D01*
X020742Y006733D01*
X020466Y006847D01*
X020168Y006847D01*
X019892Y006733D01*
X019681Y006522D01*
X019567Y006246D01*
X019567Y005948D01*
X019681Y005672D01*
X019892Y005461D01*
X020168Y005347D01*
X020466Y005347D01*
X020592Y005399D01*
X020346Y005258D01*
X020145Y005056D01*
X020003Y004810D01*
X019930Y004535D01*
X019930Y004251D01*
X019957Y004148D01*
X007062Y004148D01*
X007090Y004251D01*
X007090Y004535D01*
X007016Y004810D01*
X006874Y005056D01*
X006673Y005258D01*
X006426Y005400D01*
X006152Y005473D01*
X006135Y005473D01*
X006064Y005645D01*
X005908Y005801D01*
X005765Y005860D01*
X005765Y013893D01*
X005908Y013952D01*
X006064Y014109D01*
X006149Y014313D01*
X006152Y014313D01*
X006426Y014387D01*
X006673Y014529D01*
X006874Y014730D01*
X007016Y014976D01*
X007005Y014958D02*
X020014Y014958D01*
X019955Y015156D02*
X007064Y015156D01*
X007090Y015355D02*
X019930Y015355D01*
X019934Y015553D02*
X007085Y015553D01*
X006891Y014759D02*
X020128Y014759D01*
X020315Y014561D02*
X006704Y014561D01*
X006335Y014362D02*
X020684Y014362D01*
X020925Y014164D02*
X006087Y014164D01*
X005921Y013965D02*
X021091Y013965D01*
X021255Y013767D02*
X005765Y013767D01*
X005765Y013568D02*
X021255Y013568D01*
X021255Y013370D02*
X005765Y013370D01*
X005765Y013171D02*
X021255Y013171D01*
X021255Y012973D02*
X005765Y012973D01*
X005765Y010392D02*
X021255Y010392D01*
X021255Y010194D02*
X005765Y010194D01*
X005765Y009995D02*
X021255Y009995D01*
X021255Y009797D02*
X005765Y009797D01*
X005765Y009598D02*
X021255Y009598D01*
X021255Y009400D02*
X005765Y009400D01*
X005765Y009201D02*
X021255Y009201D01*
X021255Y009003D02*
X005765Y009003D01*
X005765Y008804D02*
X021255Y008804D01*
X021255Y008606D02*
X005765Y008606D01*
X005765Y008407D02*
X021255Y008407D01*
X021255Y008209D02*
X005765Y008209D01*
X005765Y008010D02*
X021255Y008010D01*
X021255Y007812D02*
X005765Y007812D01*
X005765Y007613D02*
X021255Y007613D01*
X021255Y007415D02*
X005765Y007415D01*
X005765Y007216D02*
X021255Y007216D01*
X021255Y007018D02*
X005765Y007018D01*
X005765Y006819D02*
X020100Y006819D01*
X019780Y006621D02*
X007161Y006621D01*
X007157Y006625D02*
X007085Y006681D01*
X007005Y006726D01*
X006920Y006762D01*
X006832Y006785D01*
X006792Y006791D01*
X006792Y006194D01*
X007388Y006194D01*
X007383Y006234D01*
X007359Y006323D01*
X007324Y006408D01*
X007278Y006487D01*
X007222Y006560D01*
X007157Y006625D01*
X007316Y006422D02*
X019640Y006422D01*
X019567Y006224D02*
X016467Y006224D01*
X016445Y006245D02*
X016585Y006105D01*
X016661Y005923D01*
X016661Y005231D01*
X020320Y005231D01*
X020132Y005033D02*
X016570Y005033D01*
X016585Y005048D02*
X016661Y005231D01*
X016585Y005048D02*
X016445Y004908D01*
X016262Y004832D01*
X016065Y004832D01*
X015882Y004908D01*
X015868Y004922D01*
X015855Y004908D01*
X015672Y004832D01*
X015474Y004832D01*
X015291Y004908D01*
X015278Y004922D01*
X015264Y004908D01*
X015081Y004832D01*
X014883Y004832D01*
X014701Y004908D01*
X014687Y004922D01*
X014673Y004908D01*
X014491Y004832D01*
X014293Y004832D01*
X014110Y004908D01*
X014056Y004962D01*
X014036Y004947D01*
X013973Y004915D01*
X013906Y004893D01*
X013836Y004882D01*
X013801Y004882D01*
X013801Y005330D01*
X013801Y006271D01*
X013766Y006271D01*
X013697Y006260D01*
X013630Y006238D01*
X013567Y006206D01*
X013546Y006191D01*
X013492Y006245D01*
X013310Y006321D01*
X013112Y006321D01*
X012929Y006245D01*
X012915Y006232D01*
X012902Y006245D01*
X012719Y006321D01*
X012521Y006321D01*
X012339Y006245D01*
X012325Y006232D01*
X012311Y006245D01*
X012128Y006321D01*
X011931Y006321D01*
X011748Y006245D01*
X011734Y006232D01*
X011721Y006245D01*
X011538Y006321D01*
X011340Y006321D01*
X011157Y006245D01*
X011144Y006232D01*
X011130Y006245D01*
X010947Y006321D01*
X010750Y006321D01*
X010567Y006245D01*
X010427Y006105D01*
X010351Y005923D01*
X010351Y005231D01*
X006699Y005231D01*
X006792Y005404D02*
X006832Y005409D01*
X006920Y005433D01*
X007005Y005468D01*
X007085Y005514D01*
X007157Y005570D01*
X007222Y005635D01*
X007278Y005708D01*
X007324Y005787D01*
X007359Y005872D01*
X007383Y005960D01*
X007388Y006000D01*
X006792Y006000D01*
X006792Y005404D01*
X006792Y005430D02*
X006598Y005430D01*
X006598Y005404D02*
X006598Y006000D01*
X006792Y006000D01*
X006792Y006194D01*
X006598Y006194D01*
X006598Y006000D01*
X006002Y006000D01*
X006007Y005960D01*
X006031Y005872D01*
X006066Y005787D01*
X006112Y005708D01*
X006168Y005635D01*
X006232Y005570D01*
X006305Y005514D01*
X006385Y005468D01*
X006469Y005433D01*
X006558Y005409D01*
X006598Y005404D01*
X006481Y005430D02*
X006314Y005430D01*
X006174Y005628D02*
X006071Y005628D01*
X006049Y005827D02*
X005846Y005827D01*
X005765Y006025D02*
X006598Y006025D01*
X006598Y006194D02*
X006002Y006194D01*
X006007Y006234D01*
X006031Y006323D01*
X006066Y006408D01*
X006112Y006487D01*
X006168Y006560D01*
X006232Y006625D01*
X006305Y006681D01*
X006385Y006726D01*
X006469Y006762D01*
X006558Y006785D01*
X006598Y006791D01*
X006598Y006194D01*
X006598Y006224D02*
X006792Y006224D01*
X006792Y006422D02*
X006598Y006422D01*
X006598Y006621D02*
X006792Y006621D01*
X006229Y006621D02*
X005765Y006621D01*
X005765Y006422D02*
X006074Y006422D01*
X006006Y006224D02*
X005765Y006224D01*
X006598Y005827D02*
X006792Y005827D01*
X006792Y006025D02*
X010394Y006025D01*
X010351Y005827D02*
X007341Y005827D01*
X007216Y005628D02*
X010351Y005628D01*
X010351Y005430D02*
X006909Y005430D01*
X006792Y005628D02*
X006598Y005628D01*
X006887Y005033D02*
X010442Y005033D01*
X010427Y005048D02*
X010567Y004908D01*
X010750Y004832D01*
X010947Y004832D01*
X011130Y004908D01*
X011144Y004922D01*
X011157Y004908D01*
X011340Y004832D01*
X011538Y004832D01*
X011721Y004908D01*
X011734Y004922D01*
X011748Y004908D01*
X011931Y004832D01*
X012128Y004832D01*
X012311Y004908D01*
X012325Y004922D01*
X012339Y004908D01*
X012521Y004832D01*
X012719Y004832D01*
X012902Y004908D01*
X012915Y004922D01*
X012929Y004908D01*
X013112Y004832D01*
X013310Y004832D01*
X013492Y004908D01*
X013546Y004962D01*
X013567Y004947D01*
X013630Y004915D01*
X013697Y004893D01*
X013766Y004882D01*
X013801Y004882D01*
X013801Y005330D01*
X013801Y005330D01*
X013801Y006271D01*
X013836Y006271D01*
X013906Y006260D01*
X013973Y006238D01*
X014036Y006206D01*
X014056Y006191D01*
X014110Y006245D01*
X014293Y006321D01*
X014491Y006321D01*
X014673Y006245D01*
X014687Y006232D01*
X014701Y006245D01*
X014883Y006321D01*
X015081Y006321D01*
X015264Y006245D01*
X015278Y006232D01*
X015291Y006245D01*
X015474Y006321D01*
X015672Y006321D01*
X015855Y006245D01*
X015868Y006232D01*
X015882Y006245D01*
X016065Y006321D01*
X016262Y006321D01*
X016445Y006245D01*
X016618Y006025D02*
X019567Y006025D01*
X019617Y005827D02*
X016661Y005827D01*
X016661Y005628D02*
X019725Y005628D01*
X019968Y005430D02*
X016661Y005430D01*
X016267Y004834D02*
X020017Y004834D01*
X019956Y004636D02*
X007063Y004636D01*
X007090Y004437D02*
X019930Y004437D01*
X019933Y004239D02*
X007086Y004239D01*
X007002Y004834D02*
X010745Y004834D01*
X010952Y004834D02*
X011335Y004834D01*
X011543Y004834D02*
X011926Y004834D01*
X012133Y004834D02*
X012517Y004834D01*
X012724Y004834D02*
X013107Y004834D01*
X013314Y004834D02*
X014288Y004834D01*
X014495Y004834D02*
X014879Y004834D01*
X015086Y004834D02*
X015469Y004834D01*
X015676Y004834D02*
X016060Y004834D01*
X014089Y006224D02*
X014001Y006224D01*
X013801Y006224D02*
X013801Y006224D01*
X013801Y006025D02*
X013801Y006025D01*
X013801Y005827D02*
X013801Y005827D01*
X013801Y005628D02*
X013801Y005628D01*
X013801Y005430D02*
X013801Y005430D01*
X013801Y005330D02*
X013801Y005330D01*
X013801Y005231D02*
X013801Y005231D01*
X013801Y005033D02*
X013801Y005033D01*
X013601Y006224D02*
X013514Y006224D01*
X010545Y006224D02*
X007384Y006224D01*
X010351Y005231D02*
X010427Y005048D01*
X020666Y005430D02*
X020705Y005430D01*
X020909Y005628D02*
X020941Y005628D01*
X021017Y005827D02*
X021166Y005827D01*
X021255Y006025D02*
X021067Y006025D01*
X021067Y006224D02*
X021255Y006224D01*
X021255Y006422D02*
X020994Y006422D01*
X020854Y006621D02*
X021255Y006621D01*
X021255Y006819D02*
X020534Y006819D01*
M02*
