%
M48
M72
T01C0.0236
T02C0.0354
T03C0.0360
T04C0.0380
T05C0.0400
T06C0.0787
%
T01
X4580Y32951
T02
X9180Y13351
X10180Y13351
T03
X1680Y13451
X1680Y14451
X1680Y15451
X1680Y16451
X1680Y17451
X1680Y18451
X1680Y19451
X1680Y20451
X2680Y20451
X2680Y19451
X2680Y18451
X2680Y17451
X2680Y16451
X2680Y15451
X2680Y14451
X2680Y13451
X2680Y24951
X2680Y25951
X2680Y26951
X2680Y27951
X2680Y28951
X2680Y29951
X2680Y30951
X2680Y31951
X1680Y31951
X1680Y30951
X1680Y29951
X1680Y28951
X1680Y27951
X1680Y26951
X1680Y25951
X1680Y24951
X15680Y24951
X15680Y25951
X15680Y26951
X15680Y27951
X15680Y28951
X15680Y29951
X15680Y30951
X15680Y31951
X16680Y31951
X16680Y30951
X16680Y29951
X16680Y28951
X16680Y27951
X16680Y26951
X16680Y25951
X16680Y24951
X16680Y20451
X16680Y19451
X16680Y18451
X16680Y17451
X16680Y16451
X16680Y15451
X16680Y14451
X16680Y13451
X15680Y13451
X15680Y14451
X15680Y15451
X15680Y16451
X15680Y17451
X15680Y18451
X15680Y19451
X15680Y20451
T04
X12180Y20451
X12180Y21451
X12180Y22451
X12180Y23451
X12180Y24451
X12180Y25451
X12180Y26451
X12180Y27451
X12180Y28451
X12180Y29451
X11180Y28451
X11180Y26451
X11180Y25451
X11180Y24451
X10180Y23451
X10180Y22451
X10180Y21451
X10180Y20451
X10180Y19451
X10180Y18451
X10180Y17451
X10180Y16451
X9180Y16451
X9180Y17451
X9180Y18451
X9180Y19451
X9180Y20451
X9180Y21451
X9180Y22451
X9180Y23451
X12180Y19451
X12180Y18451
X12180Y17451
X12180Y16451
X11180Y16451
X8180Y16451
X7180Y16451
X6180Y16451
X6180Y17451
X6180Y18451
X6180Y19451
X6180Y20451
X6180Y21451
X6180Y22451
X6180Y23451
X6180Y24451
X6180Y25451
X6180Y26451
X6180Y27451
X6180Y28451
X6180Y29451
T05
X7680Y34451
X8680Y34451
X9680Y34451
X10680Y34451
X10680Y39451
X9680Y39451
X8680Y39451
X7680Y39451
X15180Y40151
X16180Y40151
T06
X11180Y11351
X7180Y11351
M30
