G75*
%MOIN*%
%OFA0B0*%
%FSLAX24Y24*%
%IPPOS*%
%LPD*%
%AMOC8*
5,1,8,0,0,1.08239X$1,22.5*
%
%ADD10C,0.0660*%
%ADD11OC8,0.0640*%
%ADD12C,0.0680*%
%ADD13R,0.0592X0.0671*%
%ADD14C,0.0634*%
%ADD15C,0.1261*%
%ADD16C,0.0476*%
D10*
X006180Y016451D03*
X006180Y017451D03*
X006180Y018451D03*
X006180Y019451D03*
X006180Y020451D03*
X006180Y021451D03*
X006180Y022451D03*
X006180Y023451D03*
X006180Y024451D03*
X006180Y025451D03*
X006180Y026451D03*
X006180Y027451D03*
X006180Y028451D03*
X006180Y029451D03*
X009180Y023451D03*
X009180Y022451D03*
X009180Y021451D03*
X009180Y020451D03*
X009180Y019451D03*
X009180Y018451D03*
X009180Y017451D03*
X009180Y016451D03*
X010180Y016451D03*
X010180Y017451D03*
X010180Y018451D03*
X010180Y019451D03*
X010180Y020451D03*
X010180Y021451D03*
X010180Y022451D03*
X010180Y023451D03*
X011180Y024451D03*
X011180Y025451D03*
X011180Y026451D03*
X011180Y028451D03*
X012180Y028451D03*
X012180Y029451D03*
X012180Y027451D03*
X012180Y026451D03*
X012180Y025451D03*
X012180Y024451D03*
X012180Y023451D03*
X012180Y022451D03*
X012180Y021451D03*
X012180Y020451D03*
X012180Y019451D03*
X012180Y018451D03*
X012180Y017451D03*
X012180Y016451D03*
X011180Y016451D03*
X008180Y016451D03*
X007180Y016451D03*
D11*
X001680Y013451D03*
X001680Y014451D03*
X001680Y015451D03*
X001680Y016451D03*
X001680Y017451D03*
X001680Y018451D03*
X001680Y019451D03*
X001680Y020451D03*
X002680Y020451D03*
X002680Y019451D03*
X002680Y018451D03*
X002680Y017451D03*
X002680Y016451D03*
X002680Y015451D03*
X002680Y014451D03*
X002680Y013451D03*
X002680Y024951D03*
X002680Y025951D03*
X002680Y026951D03*
X002680Y027951D03*
X002680Y028951D03*
X002680Y029951D03*
X002680Y030951D03*
X002680Y031951D03*
X001680Y031951D03*
X001680Y030951D03*
X001680Y029951D03*
X001680Y028951D03*
X001680Y027951D03*
X001680Y026951D03*
X001680Y025951D03*
X001680Y024951D03*
X015680Y024951D03*
X015680Y025951D03*
X015680Y026951D03*
X015680Y027951D03*
X015680Y028951D03*
X015680Y029951D03*
X015680Y030951D03*
X015680Y031951D03*
X016680Y031951D03*
X016680Y030951D03*
X016680Y029951D03*
X016680Y028951D03*
X016680Y027951D03*
X016680Y026951D03*
X016680Y025951D03*
X016680Y024951D03*
X016680Y020451D03*
X016680Y019451D03*
X016680Y018451D03*
X016680Y017451D03*
X016680Y016451D03*
X016680Y015451D03*
X016680Y014451D03*
X016680Y013451D03*
X015680Y013451D03*
X015680Y014451D03*
X015680Y015451D03*
X015680Y016451D03*
X015680Y017451D03*
X015680Y018451D03*
X015680Y019451D03*
X015680Y020451D03*
D12*
X010680Y034151D02*
X010680Y034751D01*
X009680Y034751D02*
X009680Y034151D01*
X008680Y034151D02*
X008680Y034751D01*
X007680Y034751D02*
X007680Y034151D01*
X007680Y039151D02*
X007680Y039751D01*
X008680Y039751D02*
X008680Y039151D01*
X009680Y039151D02*
X009680Y039751D01*
X010680Y039751D02*
X010680Y039151D01*
X015180Y039851D02*
X015180Y040451D01*
X016180Y040451D02*
X016180Y039851D01*
D13*
X015954Y037951D03*
X015206Y037951D03*
D14*
X010180Y013351D03*
X009180Y013351D03*
D15*
X011180Y011351D03*
X007180Y011351D03*
D16*
X004580Y032951D03*
M02*
