G75*
%MOIN*%
%OFA0B0*%
%FSLAX24Y24*%
%IPPOS*%
%LPD*%
%AMOC8*
5,1,8,0,0,1.08239X$1,22.5*
%
%ADD10C,0.0010*%
%ADD11C,0.0080*%
%ADD12C,0.0040*%
%ADD13C,0.0060*%
%ADD14C,0.0020*%
%ADD15C,0.0050*%
%ADD16C,0.0070*%
%ADD17C,0.0030*%
%ADD18C,0.0992*%
D10*
X000180Y008451D02*
X000180Y041451D01*
X018180Y041451D01*
X018180Y008451D01*
X000180Y008451D01*
D11*
X005680Y015951D02*
X005680Y029951D01*
X008680Y029951D01*
X008680Y029451D01*
X009680Y029451D01*
X009680Y029951D01*
X012680Y029951D01*
X012680Y015951D01*
X005680Y015951D01*
X006316Y014057D02*
X006316Y008486D01*
X012044Y008486D01*
X012044Y014057D01*
X006316Y014057D01*
X006660Y008457D02*
X006660Y005042D01*
X011700Y005042D01*
X011700Y008447D01*
X011109Y004992D02*
X011109Y000140D01*
X007251Y000140D01*
X007251Y005002D01*
D12*
X012800Y010033D02*
X012800Y010339D01*
X012800Y010186D02*
X013260Y010186D01*
X013260Y010493D02*
X012800Y010493D01*
X012800Y010723D01*
X012876Y010800D01*
X013030Y010800D01*
X013107Y010723D01*
X013107Y010493D01*
X013107Y010646D02*
X013260Y010800D01*
X013260Y010953D02*
X013260Y011107D01*
X013260Y011030D02*
X012800Y011030D01*
X012800Y010953D02*
X012800Y011107D01*
X012876Y011260D02*
X012800Y011337D01*
X012800Y011490D01*
X012876Y011567D01*
X013030Y011567D02*
X013030Y011414D01*
X013030Y011567D02*
X013183Y011567D01*
X013260Y011490D01*
X013260Y011337D01*
X013183Y011260D01*
X012876Y011260D01*
X010155Y028471D02*
X010155Y028701D01*
X010309Y028854D01*
X010309Y028931D01*
X010155Y028701D02*
X010002Y028854D01*
X010002Y028931D01*
X009848Y028854D02*
X009772Y028931D01*
X009618Y028931D01*
X009542Y028854D01*
X009542Y028778D01*
X009618Y028701D01*
X009772Y028701D01*
X009848Y028624D01*
X009848Y028547D01*
X009772Y028471D01*
X009618Y028471D01*
X009542Y028547D01*
X009388Y028471D02*
X009388Y028931D01*
X009081Y028931D02*
X009388Y028471D01*
X009081Y028471D02*
X009081Y028931D01*
X008928Y028931D02*
X008621Y028931D01*
X008621Y028471D01*
X008928Y028471D01*
X008774Y028701D02*
X008621Y028701D01*
X008467Y028931D02*
X008160Y028931D01*
X008160Y028471D01*
X008467Y028471D01*
X008314Y028701D02*
X008160Y028701D01*
X008007Y028931D02*
X007700Y028931D01*
X007853Y028931D02*
X007853Y028471D01*
D13*
X007930Y033951D02*
X007430Y033951D01*
X007180Y034201D01*
X007180Y034701D01*
X007430Y034951D01*
X007930Y034951D01*
X008180Y034701D01*
X008430Y034951D01*
X008930Y034951D01*
X009180Y034701D01*
X009430Y034951D01*
X009930Y034951D01*
X010180Y034701D01*
X010430Y034951D01*
X010930Y034951D01*
X011180Y034701D01*
X011180Y034201D01*
X010930Y033951D01*
X010430Y033951D01*
X010180Y034201D01*
X009930Y033951D01*
X009430Y033951D01*
X009180Y034201D01*
X009180Y034701D01*
X009180Y034201D02*
X008930Y033951D01*
X008430Y033951D01*
X008180Y034201D01*
X007930Y033951D01*
X008180Y034201D02*
X008180Y034701D01*
X007930Y038951D02*
X007430Y038951D01*
X007180Y039201D01*
X007180Y039701D01*
X007430Y039951D01*
X007930Y039951D01*
X008180Y039701D01*
X008430Y039951D01*
X008930Y039951D01*
X009180Y039701D01*
X009430Y039951D01*
X009930Y039951D01*
X010180Y039701D01*
X010430Y039951D01*
X010930Y039951D01*
X011180Y039701D01*
X011180Y039201D01*
X010930Y038951D01*
X010430Y038951D01*
X010180Y039201D01*
X009930Y038951D01*
X009430Y038951D01*
X009180Y039201D01*
X009180Y039701D01*
X009180Y039201D02*
X008930Y038951D01*
X008430Y038951D01*
X008180Y039201D01*
X007930Y038951D01*
X008180Y039201D02*
X008180Y039701D01*
X010180Y039701D02*
X010180Y039201D01*
X010180Y034701D02*
X010180Y034201D01*
X014430Y033951D02*
X014430Y032251D01*
X014480Y032251D01*
X014480Y031651D01*
X014430Y031651D01*
X014430Y031101D01*
X014630Y030951D01*
X014630Y030751D01*
X014630Y030151D01*
X014630Y029951D01*
X014430Y029801D01*
X014430Y029251D01*
X014830Y029251D01*
X014930Y029251D01*
X014930Y030151D01*
X014930Y030751D01*
X014930Y033451D01*
X017430Y033451D01*
X017430Y023451D01*
X014930Y023451D01*
X014930Y025151D01*
X014930Y025751D01*
X014930Y027651D01*
X014830Y027651D01*
X014430Y027651D01*
X014430Y029251D01*
X014630Y030151D02*
X014830Y030151D01*
X014930Y030151D01*
X014930Y030751D02*
X014830Y030751D01*
X014630Y030751D01*
X014930Y029251D02*
X015230Y029251D01*
X015230Y027651D01*
X014930Y027651D01*
X014430Y027651D02*
X014430Y026101D01*
X014630Y025951D01*
X014630Y025751D01*
X014630Y025151D01*
X014830Y025151D01*
X014930Y025151D01*
X014930Y025751D02*
X014830Y025751D01*
X014630Y025751D01*
X014630Y025151D02*
X014630Y024951D01*
X014430Y024801D01*
X014430Y022951D01*
X017930Y022951D01*
X017930Y023451D01*
X018030Y023451D01*
X018030Y023951D01*
X017930Y023951D01*
X017930Y028201D01*
X018030Y028201D01*
X018030Y028701D01*
X017930Y028701D01*
X017930Y032951D01*
X018030Y032951D01*
X018030Y033451D01*
X017930Y033451D01*
X017930Y033951D01*
X014430Y033951D01*
X014930Y039651D02*
X014680Y039901D01*
X014680Y040401D01*
X014930Y040651D01*
X015430Y040651D01*
X015680Y040401D01*
X015930Y040651D01*
X016430Y040651D01*
X016680Y040401D01*
X016680Y039901D01*
X016430Y039651D01*
X015930Y039651D01*
X015680Y039901D01*
X015430Y039651D01*
X014930Y039651D01*
X015680Y039901D02*
X015680Y040401D01*
X014430Y022451D02*
X014430Y020751D01*
X014480Y020751D01*
X014480Y020151D01*
X014430Y020151D01*
X014430Y019601D01*
X014630Y019451D01*
X014630Y019251D01*
X014630Y018651D01*
X014630Y018451D01*
X014430Y018301D01*
X014430Y017751D01*
X014830Y017751D01*
X014930Y017751D01*
X014930Y018651D01*
X014930Y019251D01*
X014930Y021951D01*
X017430Y021951D01*
X017430Y011951D01*
X014930Y011951D01*
X014930Y013651D01*
X014930Y014251D01*
X014930Y016151D01*
X014830Y016151D01*
X014430Y016151D01*
X014430Y017751D01*
X014630Y018651D02*
X014830Y018651D01*
X014930Y018651D01*
X014930Y019251D02*
X014830Y019251D01*
X014630Y019251D01*
X014930Y017751D02*
X015230Y017751D01*
X015230Y016151D01*
X014930Y016151D01*
X014430Y016151D02*
X014430Y014601D01*
X014630Y014451D01*
X014630Y014251D01*
X014630Y013651D01*
X014830Y013651D01*
X014930Y013651D01*
X014630Y013651D02*
X014630Y013451D01*
X014430Y013301D01*
X014430Y011451D01*
X017930Y011451D01*
X017930Y011951D01*
X018030Y011951D01*
X018030Y012451D01*
X017930Y012451D01*
X017930Y016701D01*
X018030Y016701D01*
X018030Y017201D01*
X017930Y017201D01*
X017930Y021451D01*
X018030Y021451D01*
X018030Y021951D01*
X017930Y021951D01*
X017930Y022451D01*
X014430Y022451D01*
X014630Y014251D02*
X014830Y014251D01*
X014930Y014251D01*
X003930Y014301D02*
X003930Y013751D01*
X003880Y013751D01*
X003880Y013151D01*
X003930Y013151D01*
X003930Y011451D01*
X000430Y011451D01*
X000430Y011951D01*
X000330Y011951D01*
X000330Y012451D01*
X000430Y012451D01*
X000430Y016701D01*
X000330Y016701D01*
X000330Y017201D01*
X000430Y017201D01*
X000430Y021451D01*
X000330Y021451D01*
X000330Y021951D01*
X000430Y021951D01*
X000430Y022451D01*
X003930Y022451D01*
X003930Y020601D01*
X003730Y020451D01*
X003730Y020251D01*
X003730Y019651D01*
X003730Y019451D01*
X003930Y019301D01*
X003930Y017751D01*
X003530Y017751D01*
X003430Y017751D01*
X003430Y019651D01*
X003430Y020251D01*
X003530Y020251D01*
X003730Y020251D01*
X003730Y019651D02*
X003530Y019651D01*
X003430Y019651D01*
X003430Y020251D02*
X003430Y021951D01*
X000930Y021951D01*
X000930Y011951D01*
X003430Y011951D01*
X003430Y014651D01*
X003430Y015251D01*
X003530Y015251D01*
X003730Y015251D01*
X003730Y015451D01*
X003930Y015601D01*
X003930Y016151D01*
X003530Y016151D01*
X003430Y016151D01*
X003430Y015251D01*
X003430Y014651D02*
X003530Y014651D01*
X003730Y014651D01*
X003730Y014451D01*
X003930Y014301D01*
X003730Y014651D02*
X003730Y015251D01*
X003930Y016151D02*
X003930Y017751D01*
X003430Y017751D02*
X003130Y017751D01*
X003130Y016151D01*
X003430Y016151D01*
X003930Y022951D02*
X000430Y022951D01*
X000430Y023451D01*
X000330Y023451D01*
X000330Y023951D01*
X000430Y023951D01*
X000430Y028201D01*
X000330Y028201D01*
X000330Y028701D01*
X000430Y028701D01*
X000430Y032951D01*
X000330Y032951D01*
X000330Y033451D01*
X000430Y033451D01*
X000430Y033951D01*
X003930Y033951D01*
X003930Y032101D01*
X003730Y031951D01*
X003730Y031751D01*
X003730Y031151D01*
X003730Y030951D01*
X003930Y030801D01*
X003930Y029251D01*
X003530Y029251D01*
X003430Y029251D01*
X003430Y031151D01*
X003430Y031751D01*
X003530Y031751D01*
X003730Y031751D01*
X003430Y031751D02*
X003430Y033451D01*
X000930Y033451D01*
X000930Y023451D01*
X003430Y023451D01*
X003430Y026151D01*
X003430Y026751D01*
X003530Y026751D01*
X003730Y026751D01*
X003730Y026951D01*
X003930Y027101D01*
X003930Y027651D01*
X003530Y027651D01*
X003430Y027651D01*
X003430Y026751D01*
X003730Y026751D02*
X003730Y026151D01*
X003730Y025951D01*
X003930Y025801D01*
X003930Y025251D01*
X003880Y025251D01*
X003880Y024651D01*
X003930Y024651D01*
X003930Y022951D01*
X003730Y026151D02*
X003530Y026151D01*
X003430Y026151D01*
X003430Y027651D02*
X003130Y027651D01*
X003130Y029251D01*
X003430Y029251D01*
X003930Y029251D02*
X003930Y027651D01*
X003730Y031151D02*
X003530Y031151D01*
X003430Y031151D01*
D14*
X003530Y031151D02*
X003530Y029251D01*
X003530Y027651D02*
X003530Y026751D01*
X003530Y026151D02*
X003530Y023351D01*
X000830Y023351D01*
X000830Y033551D01*
X003530Y033551D01*
X003530Y031751D01*
X003530Y022051D02*
X000830Y022051D01*
X000830Y011851D01*
X003530Y011851D01*
X003530Y014651D01*
X003530Y015251D02*
X003530Y016151D01*
X003530Y017751D02*
X003530Y019651D01*
X003530Y020251D02*
X003530Y022051D01*
X014830Y022051D02*
X014830Y019251D01*
X014830Y018651D02*
X014830Y017751D01*
X014830Y016151D02*
X014830Y014251D01*
X014830Y013651D02*
X014830Y011851D01*
X017530Y011851D01*
X017530Y022051D01*
X014830Y022051D01*
X014830Y023351D02*
X017530Y023351D01*
X017530Y033551D01*
X014830Y033551D01*
X014830Y030751D01*
X014830Y030151D02*
X014830Y029251D01*
X014830Y027651D02*
X014830Y025751D01*
X014830Y025151D02*
X014830Y023351D01*
D15*
X015455Y021165D02*
X015905Y021165D01*
X015905Y021015D02*
X015905Y021315D01*
X015605Y021015D02*
X015455Y021165D01*
X016455Y021090D02*
X016530Y021015D01*
X016455Y021090D02*
X016455Y021240D01*
X016530Y021315D01*
X016605Y021315D01*
X016905Y021015D01*
X016905Y021315D01*
X014980Y017215D02*
X014905Y017215D01*
X014830Y017140D01*
X014830Y016915D01*
X014980Y016915D01*
X015055Y016990D01*
X015055Y017140D01*
X014980Y017215D01*
X014680Y017065D02*
X014830Y016915D01*
X014680Y017065D02*
X014605Y017215D01*
X014605Y016605D02*
X015055Y016605D01*
X015055Y016455D02*
X015055Y016755D01*
X014755Y016455D02*
X014605Y016605D01*
X014755Y027955D02*
X014605Y028105D01*
X015055Y028105D01*
X015055Y027955D02*
X015055Y028255D01*
X014980Y028415D02*
X014830Y028415D01*
X014830Y028640D01*
X014905Y028715D01*
X014980Y028715D01*
X015055Y028640D01*
X015055Y028490D01*
X014980Y028415D01*
X014830Y028415D02*
X014680Y028565D01*
X014605Y028715D01*
X015605Y032515D02*
X015455Y032665D01*
X015905Y032665D01*
X015905Y032515D02*
X015905Y032815D01*
X016455Y032740D02*
X016455Y032590D01*
X016530Y032515D01*
X016455Y032740D02*
X016530Y032815D01*
X016605Y032815D01*
X016905Y032515D01*
X016905Y032815D01*
X013896Y039896D02*
X013596Y039896D01*
X013746Y039896D02*
X013746Y040346D01*
X013596Y040196D01*
X013436Y040271D02*
X013436Y040121D01*
X013361Y040046D01*
X013135Y040046D01*
X013135Y039896D02*
X013135Y040346D01*
X013361Y040346D01*
X013436Y040271D01*
X012975Y040346D02*
X012825Y040346D01*
X012900Y040346D02*
X012900Y039971D01*
X012825Y039896D01*
X012750Y039896D01*
X012675Y039971D01*
X006075Y039631D02*
X006000Y039706D01*
X005850Y039706D01*
X005775Y039631D01*
X006075Y039556D02*
X005775Y039256D01*
X006075Y039256D01*
X006075Y039556D02*
X006075Y039631D01*
X005614Y039256D02*
X005314Y039256D01*
X005314Y039706D01*
X005154Y039256D02*
X004854Y039256D01*
X004854Y039706D01*
X004694Y039631D02*
X004694Y039481D01*
X004619Y039406D01*
X004393Y039406D01*
X004393Y039256D02*
X004393Y039706D01*
X004619Y039706D01*
X004694Y039631D01*
X004619Y034706D02*
X004393Y034706D01*
X004393Y034256D01*
X004393Y034406D02*
X004619Y034406D01*
X004694Y034481D01*
X004694Y034631D01*
X004619Y034706D01*
X004854Y034706D02*
X004854Y034256D01*
X005154Y034256D01*
X005314Y034256D02*
X005614Y034256D01*
X005775Y034256D02*
X006075Y034256D01*
X005925Y034256D02*
X005925Y034706D01*
X005775Y034556D01*
X005314Y034706D02*
X005314Y034256D01*
X003680Y028836D02*
X003605Y028836D01*
X003530Y028761D01*
X003530Y028536D01*
X003680Y028536D01*
X003755Y028611D01*
X003755Y028761D01*
X003680Y028836D01*
X003380Y028686D02*
X003530Y028536D01*
X003380Y028686D02*
X003305Y028836D01*
X003305Y028226D02*
X003755Y028226D01*
X003755Y028076D02*
X003755Y028376D01*
X003455Y028076D02*
X003305Y028226D01*
X002905Y024276D02*
X002905Y023976D01*
X002905Y024126D02*
X002455Y024126D01*
X002605Y023976D01*
X001905Y023976D02*
X001605Y024276D01*
X001530Y024276D01*
X001455Y024201D01*
X001455Y024051D01*
X001530Y023976D01*
X001905Y023976D02*
X001905Y024276D01*
X003305Y017336D02*
X003380Y017186D01*
X003530Y017036D01*
X003530Y017261D01*
X003605Y017336D01*
X003680Y017336D01*
X003755Y017261D01*
X003755Y017111D01*
X003680Y017036D01*
X003530Y017036D01*
X003755Y016876D02*
X003755Y016576D01*
X003755Y016726D02*
X003305Y016726D01*
X003455Y016576D01*
X002905Y012776D02*
X002905Y012476D01*
X002905Y012626D02*
X002455Y012626D01*
X002605Y012476D01*
X001905Y012476D02*
X001605Y012776D01*
X001530Y012776D01*
X001455Y012701D01*
X001455Y012551D01*
X001530Y012476D01*
X001905Y012476D02*
X001905Y012776D01*
D16*
X004214Y019907D02*
X004214Y020223D01*
X004320Y020328D01*
X004740Y020328D01*
X004845Y020223D01*
X004845Y019907D01*
X004214Y019907D01*
X004214Y020552D02*
X004214Y020867D01*
X004320Y020972D01*
X004740Y020972D01*
X004845Y020867D01*
X004845Y020552D01*
X004214Y020552D01*
X004320Y021197D02*
X004425Y021197D01*
X004530Y021302D01*
X004530Y021512D01*
X004635Y021617D01*
X004740Y021617D01*
X004845Y021512D01*
X004845Y021302D01*
X004740Y021197D01*
X004320Y021197D02*
X004214Y021302D01*
X004214Y021512D01*
X004320Y021617D01*
X004320Y021841D02*
X004214Y021946D01*
X004214Y022156D01*
X004320Y022261D01*
X004425Y022261D01*
X004845Y021841D01*
X004845Y022261D01*
X004845Y029407D02*
X004214Y029407D01*
X004214Y029723D01*
X004320Y029828D01*
X004740Y029828D01*
X004845Y029723D01*
X004845Y029407D01*
X004845Y030052D02*
X004845Y030367D01*
X004740Y030472D01*
X004320Y030472D01*
X004214Y030367D01*
X004214Y030052D01*
X004845Y030052D01*
X004740Y030697D02*
X004845Y030802D01*
X004845Y031012D01*
X004740Y031117D01*
X004635Y031117D01*
X004530Y031012D01*
X004530Y030802D01*
X004425Y030697D01*
X004320Y030697D01*
X004214Y030802D01*
X004214Y031012D01*
X004320Y031117D01*
X004425Y031341D02*
X004214Y031551D01*
X004845Y031551D01*
X004845Y031341D02*
X004845Y031761D01*
X013214Y031723D02*
X013214Y031513D01*
X013320Y031407D01*
X013740Y031407D01*
X013845Y031513D01*
X013845Y031723D01*
X013740Y031828D01*
X013845Y032052D02*
X013214Y032472D01*
X013320Y032697D02*
X013214Y032802D01*
X013214Y033012D01*
X013320Y033117D01*
X013530Y033012D02*
X013530Y032802D01*
X013425Y032697D01*
X013320Y032697D01*
X013530Y033012D02*
X013635Y033117D01*
X013740Y033117D01*
X013845Y033012D01*
X013845Y032802D01*
X013740Y032697D01*
X013845Y033341D02*
X013635Y033551D01*
X013845Y033761D01*
X013214Y033761D01*
X013214Y033341D02*
X013845Y033341D01*
X013320Y031828D02*
X013214Y031723D01*
X013214Y031183D02*
X013845Y031183D01*
X013214Y030763D01*
X013845Y030763D01*
X013845Y030539D02*
X013845Y030118D01*
X013214Y030118D01*
X013214Y030539D01*
X013530Y030329D02*
X013530Y030118D01*
X013740Y022261D02*
X013320Y022261D01*
X013214Y022156D01*
X013214Y021841D01*
X013845Y021841D01*
X013845Y022156D01*
X013740Y022261D01*
X013740Y021617D02*
X013845Y021512D01*
X013845Y021302D01*
X013740Y021197D01*
X013320Y021197D01*
X013214Y021302D01*
X013214Y021512D01*
X013320Y021617D01*
X013214Y020552D02*
X013845Y020552D01*
X013845Y020972D01*
D17*
X015682Y036866D02*
X015788Y036866D01*
X015842Y036919D01*
X015950Y036919D02*
X015950Y036972D01*
X016004Y037026D01*
X016111Y037026D01*
X016164Y036972D01*
X016164Y036919D01*
X016111Y036866D01*
X016004Y036866D01*
X015950Y036919D01*
X016004Y037026D02*
X015950Y037079D01*
X015950Y037133D01*
X016004Y037186D01*
X016111Y037186D01*
X016164Y037133D01*
X016164Y037079D01*
X016111Y037026D01*
X016273Y037026D02*
X016486Y037026D01*
X016433Y036866D02*
X016433Y037186D01*
X016273Y037026D01*
X015842Y037133D02*
X015788Y037186D01*
X015682Y037186D01*
X015628Y037133D01*
X015628Y036919D01*
X015682Y036866D01*
D18*
X009180Y001925D03*
M02*
