%
M48
M72
T01C0.0354
T02C0.0360
T03C0.0472
T04C0.0787
T05C0.1160
%
T01
X19972Y736
X20563Y736
X21153Y736
X21744Y736
X22335Y736
X22925Y736
X23516Y736
X24106Y736
X24697Y736
X25287Y736
T02
X25279Y6600
X24279Y6600
X23279Y6600
X22279Y6600
X21279Y6600
X20279Y6600
X19279Y6600
X19279Y7600
X20279Y7600
X21279Y7600
X22279Y7600
X23279Y7600
X24279Y7600
X25279Y7600
X26279Y7600
X26279Y6600
T03
X30543Y9831
X14716Y9831
X14716Y736
X30543Y736
T04
X29441Y1504
X15819Y1504
T05
X13383Y1300
X13383Y9300
X31883Y9300
X31883Y1300
M30
