G75*
%MOIN*%
%OFA0B0*%
%FSLAX24Y24*%
%IPPOS*%
%LPD*%
%AMOC8*
5,1,8,0,0,1.08239X$1,22.5*
%
%ADD10C,0.0494*%
%ADD11C,0.1000*%
%ADD12C,0.0612*%
%ADD13OC8,0.0500*%
%ADD14R,0.0512X0.0591*%
%ADD15R,0.0591X0.0512*%
%ADD16C,0.0200*%
D10*
X019972Y000736D02*
X019972Y001231D01*
X020563Y001231D02*
X020563Y000736D01*
X021153Y000736D02*
X021153Y001231D01*
X021744Y001231D02*
X021744Y000736D01*
X022335Y000736D02*
X022335Y001231D01*
X022925Y001231D02*
X022925Y000736D01*
X023516Y000736D02*
X023516Y001231D01*
X024106Y001231D02*
X024106Y000736D01*
X024697Y000736D02*
X024697Y001231D01*
X025287Y001231D02*
X025287Y000736D01*
D11*
X029441Y001504D03*
X015819Y001504D03*
D12*
X014716Y000736D03*
X030543Y000736D03*
X030543Y009831D03*
X014716Y009831D03*
D13*
X019279Y007600D03*
X020279Y007600D03*
X021279Y007600D03*
X022279Y007600D03*
X023279Y007600D03*
X024279Y007600D03*
X025279Y007600D03*
X026279Y007600D03*
X026279Y006600D03*
X025279Y006600D03*
X024279Y006600D03*
X023279Y006600D03*
X022279Y006600D03*
X021279Y006600D03*
X020279Y006600D03*
X019279Y006600D03*
D14*
X025105Y002300D03*
X025853Y002300D03*
D15*
X024079Y002626D03*
X024079Y003374D03*
D16*
X012888Y001979D02*
X012888Y008621D01*
X012913Y008596D01*
X013218Y008470D01*
X013548Y008470D01*
X013853Y008596D01*
X014087Y008830D01*
X014213Y009135D01*
X014213Y009465D01*
X014087Y009770D01*
X013853Y010004D01*
X013754Y010045D01*
X014203Y010045D01*
X014160Y009941D01*
X014160Y009720D01*
X014245Y009516D01*
X014401Y009359D01*
X014606Y009274D01*
X014827Y009274D01*
X015031Y009359D01*
X015188Y009516D01*
X015273Y009720D01*
X015273Y009941D01*
X015230Y010045D01*
X030030Y010045D01*
X029987Y009941D01*
X029987Y009720D01*
X030072Y009516D01*
X030228Y009359D01*
X030433Y009274D01*
X030654Y009274D01*
X030858Y009359D01*
X031015Y009516D01*
X031099Y009720D01*
X031099Y009941D01*
X031056Y010045D01*
X031513Y010045D01*
X031413Y010004D01*
X031180Y009770D01*
X031053Y009465D01*
X031053Y009135D01*
X031180Y008830D01*
X031413Y008596D01*
X031718Y008470D01*
X032048Y008470D01*
X032353Y008596D01*
X032378Y008621D01*
X032378Y001979D01*
X032353Y002004D01*
X032048Y002130D01*
X031718Y002130D01*
X031413Y002004D01*
X031180Y001770D01*
X031053Y001465D01*
X031053Y001135D01*
X031180Y000830D01*
X031413Y000596D01*
X031513Y000555D01*
X031070Y000555D01*
X031099Y000626D01*
X031099Y000847D01*
X031015Y001051D01*
X030858Y001208D01*
X030654Y001292D01*
X030433Y001292D01*
X030228Y001208D01*
X030072Y001051D01*
X029987Y000847D01*
X029987Y000626D01*
X030016Y000555D01*
X025750Y000555D01*
X025784Y000637D01*
X025784Y001106D01*
X026082Y001403D01*
X026180Y001502D01*
X026233Y001630D01*
X026233Y001785D01*
X026251Y001793D01*
X026321Y001863D01*
X026359Y001955D01*
X026359Y002645D01*
X026321Y002737D01*
X026251Y002807D01*
X026159Y002845D01*
X025548Y002845D01*
X025479Y002817D01*
X025411Y002845D01*
X024800Y002845D01*
X024708Y002807D01*
X024638Y002737D01*
X024625Y002706D01*
X024625Y002932D01*
X024587Y003024D01*
X024563Y003047D01*
X024575Y003092D01*
X024575Y003346D01*
X024107Y003346D01*
X024107Y003402D01*
X024051Y003402D01*
X024051Y003830D01*
X023758Y003830D01*
X023707Y003816D01*
X023661Y003790D01*
X023633Y003762D01*
X023633Y004459D01*
X025274Y006100D01*
X025284Y006100D01*
X029091Y002294D01*
X029091Y002171D01*
X029016Y002140D01*
X028805Y001929D01*
X028691Y001653D01*
X028691Y001355D01*
X028805Y001079D01*
X029016Y000868D01*
X029292Y000754D01*
X029590Y000754D01*
X029866Y000868D01*
X030077Y001079D01*
X030191Y001355D01*
X030191Y001653D01*
X030077Y001929D01*
X029866Y002140D01*
X029791Y002171D01*
X029791Y002508D01*
X029738Y002637D01*
X029639Y002735D01*
X026274Y006100D01*
X026487Y006100D01*
X026779Y006393D01*
X026779Y006807D01*
X026487Y007100D01*
X026779Y007393D01*
X026779Y007807D01*
X026487Y008100D01*
X026072Y008100D01*
X025779Y007807D01*
X025487Y008100D01*
X025072Y008100D01*
X024779Y007807D01*
X024487Y008100D01*
X024072Y008100D01*
X023779Y007807D01*
X023487Y008100D01*
X023072Y008100D01*
X022779Y007807D01*
X022487Y008100D01*
X022072Y008100D01*
X021779Y007807D01*
X021487Y008100D01*
X021072Y008100D01*
X020779Y007807D01*
X020487Y008100D01*
X020072Y008100D01*
X019779Y007807D01*
X019487Y008100D01*
X019072Y008100D01*
X018779Y007807D01*
X018779Y007393D01*
X019072Y007100D01*
X019487Y007100D01*
X019779Y007393D01*
X019779Y007807D01*
X019779Y007393D01*
X020072Y007100D01*
X020487Y007100D01*
X020779Y007393D01*
X020779Y007807D01*
X020779Y007393D01*
X021072Y007100D01*
X021487Y007100D01*
X021779Y007393D01*
X021779Y007807D01*
X021779Y007393D01*
X022072Y007100D01*
X022487Y007100D01*
X022779Y007393D01*
X022779Y007807D01*
X022779Y007393D01*
X023072Y007100D01*
X023487Y007100D01*
X023779Y007393D01*
X023779Y007807D01*
X023779Y007393D01*
X024072Y007100D01*
X024487Y007100D01*
X024779Y007393D01*
X024779Y007807D01*
X024779Y007393D01*
X025072Y007100D01*
X025487Y007100D01*
X025779Y007393D01*
X025779Y007807D01*
X025779Y007393D01*
X026072Y007100D01*
X026487Y007100D01*
X026072Y007100D01*
X025779Y006807D01*
X025487Y007100D01*
X025072Y007100D01*
X024779Y006807D01*
X024779Y006595D01*
X024729Y006545D01*
X024729Y006600D01*
X024729Y006786D01*
X024466Y007050D01*
X024279Y007050D01*
X024093Y007050D01*
X023829Y006786D01*
X023829Y006600D01*
X023829Y006414D01*
X024093Y006150D01*
X024279Y006150D01*
X024279Y006600D01*
X023829Y006600D01*
X024279Y006600D01*
X024279Y006600D01*
X024279Y006600D01*
X024279Y007050D01*
X024279Y006600D01*
X024279Y006600D01*
X024279Y006150D01*
X024334Y006150D01*
X023085Y004901D01*
X022987Y004802D01*
X022933Y004674D01*
X022933Y002030D01*
X022987Y001902D01*
X023085Y001803D01*
X023166Y001723D01*
X023166Y001609D01*
X023159Y001613D01*
X023097Y001645D01*
X023030Y001667D01*
X022960Y001678D01*
X022925Y001678D01*
X022890Y001678D01*
X022820Y001667D01*
X022753Y001645D01*
X022691Y001613D01*
X022685Y001609D01*
X022685Y005510D01*
X023274Y006100D01*
X023487Y006100D01*
X023779Y006393D01*
X023779Y006807D01*
X023487Y007100D01*
X023072Y007100D01*
X022779Y006807D01*
X022487Y007100D01*
X022072Y007100D01*
X021779Y006807D01*
X021779Y006595D01*
X021779Y006595D01*
X021779Y006807D01*
X021487Y007100D01*
X021072Y007100D01*
X020779Y006807D01*
X020487Y007100D01*
X020072Y007100D01*
X019779Y006807D01*
X019487Y007100D01*
X019072Y007100D01*
X018779Y006807D01*
X018779Y006393D01*
X018929Y006243D01*
X018929Y001360D01*
X018983Y001231D01*
X019475Y000738D01*
X019475Y000637D01*
X019509Y000555D01*
X015243Y000555D01*
X015273Y000626D01*
X015273Y000847D01*
X015188Y001051D01*
X015031Y001208D01*
X014827Y001292D01*
X014606Y001292D01*
X014401Y001208D01*
X014245Y001051D01*
X014160Y000847D01*
X014160Y000626D01*
X014189Y000555D01*
X013754Y000555D01*
X013853Y000596D01*
X014087Y000830D01*
X014213Y001135D01*
X014213Y001465D01*
X014087Y001770D01*
X013853Y002004D01*
X013548Y002130D01*
X013218Y002130D01*
X012913Y002004D01*
X012888Y001979D01*
X012888Y002087D02*
X013113Y002087D01*
X012888Y002285D02*
X018929Y002285D01*
X018929Y002087D02*
X016209Y002087D01*
X016208Y002087D02*
X016129Y002133D01*
X016044Y002168D01*
X015956Y002192D01*
X015916Y002197D01*
X015916Y001601D01*
X016512Y001601D01*
X016507Y001641D01*
X016483Y001729D01*
X016448Y001814D01*
X016402Y001894D01*
X016346Y001966D01*
X016281Y002031D01*
X016208Y002087D01*
X016405Y001888D02*
X018929Y001888D01*
X018929Y001690D02*
X016494Y001690D01*
X016512Y001407D02*
X015916Y001407D01*
X015916Y001601D01*
X015722Y001601D01*
X015722Y002197D01*
X015682Y002192D01*
X015593Y002168D01*
X015508Y002133D01*
X015429Y002087D01*
X015356Y002031D01*
X015291Y001966D01*
X015235Y001894D01*
X015190Y001814D01*
X015154Y001729D01*
X015131Y001641D01*
X015125Y001601D01*
X015722Y001601D01*
X015722Y001407D01*
X015916Y001407D01*
X015916Y000811D01*
X015956Y000816D01*
X016044Y000840D01*
X016129Y000875D01*
X016208Y000921D01*
X016281Y000977D01*
X016346Y001041D01*
X016402Y001114D01*
X016448Y001194D01*
X016483Y001278D01*
X016507Y001367D01*
X016512Y001407D01*
X016487Y001293D02*
X018957Y001293D01*
X018929Y001491D02*
X015916Y001491D01*
X015722Y001491D02*
X014203Y001491D01*
X014213Y001293D02*
X015151Y001293D01*
X015154Y001278D02*
X015190Y001194D01*
X015235Y001114D01*
X015291Y001041D01*
X015356Y000977D01*
X015429Y000921D01*
X015508Y000875D01*
X015593Y000840D01*
X015682Y000816D01*
X015722Y000811D01*
X015722Y001407D01*
X015125Y001407D01*
X015131Y001367D01*
X015154Y001278D01*
X015145Y001094D02*
X015251Y001094D01*
X015252Y000896D02*
X015473Y000896D01*
X015722Y000896D02*
X015916Y000896D01*
X015916Y001094D02*
X015722Y001094D01*
X015722Y001293D02*
X015916Y001293D01*
X016387Y001094D02*
X019120Y001094D01*
X019318Y000896D02*
X016165Y000896D01*
X015273Y000697D02*
X019475Y000697D01*
X019972Y000736D02*
X019279Y001429D01*
X019279Y006600D01*
X018779Y006652D02*
X012888Y006652D01*
X012888Y006454D02*
X018779Y006454D01*
X018917Y006255D02*
X012888Y006255D01*
X012888Y006057D02*
X018929Y006057D01*
X018929Y005858D02*
X012888Y005858D01*
X012888Y005660D02*
X018929Y005660D01*
X018929Y005461D02*
X012888Y005461D01*
X012888Y005263D02*
X018929Y005263D01*
X018929Y005064D02*
X012888Y005064D01*
X012888Y004866D02*
X018929Y004866D01*
X018929Y004667D02*
X012888Y004667D01*
X012888Y004469D02*
X018929Y004469D01*
X018929Y004270D02*
X012888Y004270D01*
X012888Y004072D02*
X018929Y004072D01*
X018929Y003873D02*
X012888Y003873D01*
X012888Y003675D02*
X018929Y003675D01*
X018929Y003476D02*
X012888Y003476D01*
X012888Y003278D02*
X018929Y003278D01*
X018929Y003079D02*
X012888Y003079D01*
X012888Y002881D02*
X018929Y002881D01*
X018929Y002682D02*
X012888Y002682D01*
X012888Y002484D02*
X018929Y002484D01*
X019629Y002484D02*
X019929Y002484D01*
X019929Y002434D02*
X019983Y002306D01*
X020233Y002055D01*
X020233Y001661D01*
X020071Y001728D01*
X019873Y001728D01*
X019691Y001652D01*
X019629Y001591D01*
X019629Y006243D01*
X019779Y006393D01*
X019779Y006807D01*
X019779Y006393D01*
X019929Y006243D01*
X019929Y002434D01*
X020003Y002285D02*
X019629Y002285D01*
X019629Y002087D02*
X020202Y002087D01*
X020233Y001888D02*
X019629Y001888D01*
X019629Y001690D02*
X019781Y001690D01*
X020163Y001690D02*
X020233Y001690D01*
X020583Y002200D02*
X020583Y000757D01*
X020563Y000736D01*
X021153Y000736D02*
X021153Y006474D01*
X021279Y006600D01*
X020779Y006652D02*
X020779Y006652D01*
X020779Y006807D02*
X020779Y006393D01*
X020629Y006243D01*
X020629Y002649D01*
X020782Y002497D01*
X020803Y002475D01*
X020803Y006369D01*
X020779Y006393D01*
X020779Y006807D01*
X020736Y006851D02*
X020823Y006851D01*
X021021Y007049D02*
X020537Y007049D01*
X020634Y007248D02*
X020925Y007248D01*
X020779Y007446D02*
X020779Y007446D01*
X020779Y007645D02*
X020779Y007645D01*
X020743Y007843D02*
X020815Y007843D01*
X021014Y008042D02*
X020545Y008042D01*
X020014Y008042D02*
X019545Y008042D01*
X019743Y007843D02*
X019815Y007843D01*
X019779Y007645D02*
X019779Y007645D01*
X019779Y007446D02*
X019779Y007446D01*
X019634Y007248D02*
X019925Y007248D01*
X020021Y007049D02*
X019537Y007049D01*
X019736Y006851D02*
X019823Y006851D01*
X019779Y006652D02*
X019779Y006652D01*
X019779Y006454D02*
X019779Y006454D01*
X019642Y006255D02*
X019917Y006255D01*
X019929Y006057D02*
X019629Y006057D01*
X019629Y005858D02*
X019929Y005858D01*
X019929Y005660D02*
X019629Y005660D01*
X019629Y005461D02*
X019929Y005461D01*
X020629Y005461D02*
X020803Y005461D01*
X020803Y005660D02*
X020629Y005660D01*
X020629Y005858D02*
X020803Y005858D01*
X020803Y006057D02*
X020629Y006057D01*
X020642Y006255D02*
X020803Y006255D01*
X020779Y006454D02*
X020779Y006454D01*
X020279Y006600D02*
X020279Y002504D01*
X020583Y002200D01*
X020795Y002484D02*
X020803Y002484D01*
X020803Y002682D02*
X020629Y002682D01*
X020629Y002881D02*
X020803Y002881D01*
X020803Y003079D02*
X020629Y003079D01*
X020629Y003278D02*
X020803Y003278D01*
X020803Y003476D02*
X020629Y003476D01*
X020629Y003675D02*
X020803Y003675D01*
X020803Y003873D02*
X020629Y003873D01*
X020629Y004072D02*
X020803Y004072D01*
X020803Y004270D02*
X020629Y004270D01*
X020629Y004469D02*
X020803Y004469D01*
X020803Y004667D02*
X020629Y004667D01*
X020629Y004866D02*
X020803Y004866D01*
X020803Y005064D02*
X020629Y005064D01*
X020629Y005263D02*
X020803Y005263D01*
X019929Y005263D02*
X019629Y005263D01*
X019629Y005064D02*
X019929Y005064D01*
X019929Y004866D02*
X019629Y004866D01*
X019629Y004667D02*
X019929Y004667D01*
X019929Y004469D02*
X019629Y004469D01*
X019629Y004270D02*
X019929Y004270D01*
X019929Y004072D02*
X019629Y004072D01*
X019629Y003873D02*
X019929Y003873D01*
X019929Y003675D02*
X019629Y003675D01*
X019629Y003476D02*
X019929Y003476D01*
X019929Y003278D02*
X019629Y003278D01*
X019629Y003079D02*
X019929Y003079D01*
X019929Y002881D02*
X019629Y002881D01*
X019629Y002682D02*
X019929Y002682D01*
X022685Y002682D02*
X022933Y002682D01*
X022933Y002484D02*
X022685Y002484D01*
X022685Y002285D02*
X022933Y002285D01*
X022933Y002087D02*
X022685Y002087D01*
X022685Y001888D02*
X023000Y001888D01*
X023283Y002100D02*
X023283Y004604D01*
X025279Y006600D01*
X029441Y002439D01*
X029441Y001504D01*
X030191Y001491D02*
X031064Y001491D01*
X031053Y001293D02*
X030165Y001293D01*
X030114Y001094D02*
X030083Y001094D01*
X030007Y000896D02*
X029893Y000896D01*
X029987Y000697D02*
X025784Y000697D01*
X025784Y000896D02*
X028989Y000896D01*
X028799Y001094D02*
X025784Y001094D01*
X025971Y001293D02*
X028717Y001293D01*
X028691Y001491D02*
X026169Y001491D01*
X026233Y001690D02*
X028706Y001690D01*
X028788Y001888D02*
X026332Y001888D01*
X026359Y002087D02*
X028963Y002087D01*
X029091Y002285D02*
X026359Y002285D01*
X026359Y002484D02*
X028901Y002484D01*
X028702Y002682D02*
X026344Y002682D01*
X025883Y002270D02*
X025853Y002300D01*
X025883Y002270D02*
X025883Y001700D01*
X025287Y001104D01*
X025287Y000736D01*
X024697Y000736D02*
X024697Y001891D01*
X025105Y002300D01*
X024625Y002881D02*
X028504Y002881D01*
X028305Y003079D02*
X024571Y003079D01*
X024575Y003278D02*
X028107Y003278D01*
X027908Y003476D02*
X024575Y003476D01*
X024575Y003402D02*
X024575Y003656D01*
X024561Y003707D01*
X024535Y003753D01*
X024497Y003790D01*
X024452Y003816D01*
X024401Y003830D01*
X024107Y003830D01*
X024107Y003402D01*
X024575Y003402D01*
X024570Y003675D02*
X027710Y003675D01*
X027511Y003873D02*
X023633Y003873D01*
X023633Y004072D02*
X027313Y004072D01*
X027114Y004270D02*
X023633Y004270D01*
X023643Y004469D02*
X026916Y004469D01*
X026717Y004667D02*
X023841Y004667D01*
X024040Y004866D02*
X026519Y004866D01*
X026320Y005064D02*
X024238Y005064D01*
X024437Y005263D02*
X026122Y005263D01*
X025923Y005461D02*
X024635Y005461D01*
X024834Y005660D02*
X025725Y005660D01*
X025526Y005858D02*
X025032Y005858D01*
X025231Y006057D02*
X025328Y006057D01*
X024279Y006255D02*
X024279Y006255D01*
X024279Y006454D02*
X024279Y006454D01*
X024279Y006600D02*
X024279Y006600D01*
X024729Y006600D01*
X024279Y006600D01*
X024279Y006652D02*
X024279Y006652D01*
X024279Y006851D02*
X024279Y006851D01*
X024279Y007049D02*
X024279Y007049D01*
X024092Y007049D02*
X023537Y007049D01*
X023634Y007248D02*
X023925Y007248D01*
X023779Y007446D02*
X023779Y007446D01*
X023779Y007645D02*
X023779Y007645D01*
X023743Y007843D02*
X023815Y007843D01*
X024014Y008042D02*
X023545Y008042D01*
X023014Y008042D02*
X022545Y008042D01*
X022743Y007843D02*
X022815Y007843D01*
X022779Y007645D02*
X022779Y007645D01*
X022779Y007446D02*
X022779Y007446D01*
X022634Y007248D02*
X022925Y007248D01*
X023021Y007049D02*
X022537Y007049D01*
X022736Y006851D02*
X022823Y006851D01*
X022779Y006807D02*
X022779Y006595D01*
X022779Y006595D01*
X022779Y006807D01*
X022779Y006652D02*
X022779Y006652D01*
X022279Y006600D02*
X021744Y006065D01*
X021744Y000736D01*
X022335Y000736D02*
X022335Y005655D01*
X023279Y006600D01*
X023779Y006652D02*
X023829Y006652D01*
X023829Y006454D02*
X023779Y006454D01*
X023642Y006255D02*
X023988Y006255D01*
X024241Y006057D02*
X023231Y006057D01*
X023032Y005858D02*
X024042Y005858D01*
X023844Y005660D02*
X022834Y005660D01*
X022685Y005461D02*
X023645Y005461D01*
X023447Y005263D02*
X022685Y005263D01*
X022685Y005064D02*
X023248Y005064D01*
X023050Y004866D02*
X022685Y004866D01*
X022685Y004667D02*
X022933Y004667D01*
X022933Y004469D02*
X022685Y004469D01*
X022685Y004270D02*
X022933Y004270D01*
X022933Y004072D02*
X022685Y004072D01*
X022685Y003873D02*
X022933Y003873D01*
X022933Y003675D02*
X022685Y003675D01*
X022685Y003476D02*
X022933Y003476D01*
X022933Y003278D02*
X022685Y003278D01*
X022685Y003079D02*
X022933Y003079D01*
X022933Y002881D02*
X022685Y002881D01*
X024079Y002626D02*
X024079Y000763D01*
X024106Y000736D01*
X023516Y000736D02*
X023516Y001868D01*
X023283Y002100D01*
X023166Y001690D02*
X022685Y001690D01*
X022925Y001678D02*
X022925Y000736D01*
X022925Y000736D01*
X022925Y001678D01*
X022925Y001491D02*
X022925Y001491D01*
X022925Y001293D02*
X022925Y001293D01*
X022925Y001094D02*
X022925Y001094D01*
X022925Y000896D02*
X022925Y000896D01*
X024051Y003476D02*
X024107Y003476D01*
X024107Y003675D02*
X024051Y003675D01*
X027112Y005263D02*
X032378Y005263D01*
X032378Y005064D02*
X027310Y005064D01*
X027509Y004866D02*
X032378Y004866D01*
X032378Y004667D02*
X027707Y004667D01*
X027906Y004469D02*
X032378Y004469D01*
X032378Y004270D02*
X028104Y004270D01*
X028303Y004072D02*
X032378Y004072D01*
X032378Y003873D02*
X028501Y003873D01*
X028700Y003675D02*
X032378Y003675D01*
X032378Y003476D02*
X028898Y003476D01*
X029097Y003278D02*
X032378Y003278D01*
X032378Y003079D02*
X029295Y003079D01*
X029494Y002881D02*
X032378Y002881D01*
X032378Y002682D02*
X029692Y002682D01*
X029639Y002735D02*
X029639Y002735D01*
X029791Y002484D02*
X032378Y002484D01*
X032378Y002285D02*
X029791Y002285D01*
X029919Y002087D02*
X031613Y002087D01*
X031298Y001888D02*
X030094Y001888D01*
X030176Y001690D02*
X031146Y001690D01*
X031070Y001094D02*
X030972Y001094D01*
X031079Y000896D02*
X031152Y000896D01*
X031099Y000697D02*
X031313Y000697D01*
X032153Y002087D02*
X032378Y002087D01*
X032378Y005461D02*
X026913Y005461D01*
X026715Y005660D02*
X032378Y005660D01*
X032378Y005858D02*
X026516Y005858D01*
X026318Y006057D02*
X032378Y006057D01*
X032378Y006255D02*
X026642Y006255D01*
X026779Y006454D02*
X032378Y006454D01*
X032378Y006652D02*
X026779Y006652D01*
X026736Y006851D02*
X032378Y006851D01*
X032378Y007049D02*
X026537Y007049D01*
X026634Y007248D02*
X032378Y007248D01*
X032378Y007446D02*
X026779Y007446D01*
X026779Y007645D02*
X032378Y007645D01*
X032378Y007843D02*
X026743Y007843D01*
X026545Y008042D02*
X032378Y008042D01*
X032378Y008240D02*
X012888Y008240D01*
X012888Y008042D02*
X019014Y008042D01*
X018815Y007843D02*
X012888Y007843D01*
X012888Y007645D02*
X018779Y007645D01*
X018779Y007446D02*
X012888Y007446D01*
X012888Y007248D02*
X018925Y007248D01*
X019021Y007049D02*
X012888Y007049D01*
X012888Y006851D02*
X018823Y006851D01*
X021537Y007049D02*
X022021Y007049D01*
X021925Y007248D02*
X021634Y007248D01*
X021779Y007446D02*
X021779Y007446D01*
X021779Y007645D02*
X021779Y007645D01*
X021743Y007843D02*
X021815Y007843D01*
X022014Y008042D02*
X021545Y008042D01*
X021736Y006851D02*
X021823Y006851D01*
X021779Y006652D02*
X021779Y006652D01*
X023736Y006851D02*
X023894Y006851D01*
X024467Y007049D02*
X025021Y007049D01*
X024925Y007248D02*
X024634Y007248D01*
X024779Y007446D02*
X024779Y007446D01*
X024779Y007645D02*
X024779Y007645D01*
X024743Y007843D02*
X024815Y007843D01*
X025014Y008042D02*
X024545Y008042D01*
X025545Y008042D02*
X026014Y008042D01*
X025815Y007843D02*
X025743Y007843D01*
X025779Y007645D02*
X025779Y007645D01*
X025779Y007446D02*
X025779Y007446D01*
X025634Y007248D02*
X025925Y007248D01*
X026021Y007049D02*
X025537Y007049D01*
X025736Y006851D02*
X025823Y006851D01*
X025779Y006807D02*
X025779Y006595D01*
X025779Y006595D01*
X025779Y006807D01*
X025779Y006652D02*
X025779Y006652D01*
X024823Y006851D02*
X024665Y006851D01*
X024729Y006652D02*
X024779Y006652D01*
X030156Y009431D02*
X015103Y009431D01*
X015235Y009630D02*
X030024Y009630D01*
X029987Y009828D02*
X015273Y009828D01*
X015237Y010027D02*
X030022Y010027D01*
X031064Y010027D02*
X031468Y010027D01*
X031238Y009828D02*
X031099Y009828D01*
X031121Y009630D02*
X031062Y009630D01*
X031053Y009431D02*
X030930Y009431D01*
X031053Y009233D02*
X014213Y009233D01*
X014213Y009431D02*
X014329Y009431D01*
X014198Y009630D02*
X014145Y009630D01*
X014160Y009828D02*
X014029Y009828D01*
X014195Y010027D02*
X013798Y010027D01*
X014172Y009034D02*
X031095Y009034D01*
X031177Y008836D02*
X014089Y008836D01*
X013894Y008637D02*
X031373Y008637D01*
X032378Y008439D02*
X012888Y008439D01*
X013653Y002087D02*
X015428Y002087D01*
X015232Y001888D02*
X013969Y001888D01*
X014120Y001690D02*
X015144Y001690D01*
X015722Y001690D02*
X015916Y001690D01*
X015916Y001888D02*
X015722Y001888D01*
X015722Y002087D02*
X015916Y002087D01*
X014288Y001094D02*
X014196Y001094D01*
X014180Y000896D02*
X014114Y000896D01*
X014160Y000697D02*
X013954Y000697D01*
M02*
