G75*
%MOIN*%
%OFA0B0*%
%FSLAX24Y24*%
%IPPOS*%
%LPD*%
%AMOC8*
5,1,8,0,0,1.08239X$1,22.5*
%
%ADD10C,0.0010*%
%ADD11C,0.0000*%
%ADD12C,0.0060*%
%ADD13C,0.0020*%
%ADD14C,0.0070*%
%ADD15C,0.0050*%
%ADD16C,0.0030*%
D10*
X012633Y000300D02*
X012633Y010300D01*
X032633Y010300D01*
X032633Y000300D01*
X012633Y000300D01*
D11*
X012803Y001300D02*
X012805Y001348D01*
X012811Y001395D01*
X012821Y001442D01*
X012834Y001488D01*
X012852Y001533D01*
X012873Y001576D01*
X012897Y001617D01*
X012925Y001656D01*
X012956Y001693D01*
X012990Y001727D01*
X013027Y001758D01*
X013066Y001786D01*
X013107Y001810D01*
X013150Y001831D01*
X013195Y001849D01*
X013241Y001862D01*
X013288Y001872D01*
X013335Y001878D01*
X013383Y001880D01*
X013431Y001878D01*
X013478Y001872D01*
X013525Y001862D01*
X013571Y001849D01*
X013616Y001831D01*
X013659Y001810D01*
X013700Y001786D01*
X013739Y001758D01*
X013776Y001727D01*
X013810Y001693D01*
X013841Y001656D01*
X013869Y001617D01*
X013893Y001576D01*
X013914Y001533D01*
X013932Y001488D01*
X013945Y001442D01*
X013955Y001395D01*
X013961Y001348D01*
X013963Y001300D01*
X013961Y001252D01*
X013955Y001205D01*
X013945Y001158D01*
X013932Y001112D01*
X013914Y001067D01*
X013893Y001024D01*
X013869Y000983D01*
X013841Y000944D01*
X013810Y000907D01*
X013776Y000873D01*
X013739Y000842D01*
X013700Y000814D01*
X013659Y000790D01*
X013616Y000769D01*
X013571Y000751D01*
X013525Y000738D01*
X013478Y000728D01*
X013431Y000722D01*
X013383Y000720D01*
X013335Y000722D01*
X013288Y000728D01*
X013241Y000738D01*
X013195Y000751D01*
X013150Y000769D01*
X013107Y000790D01*
X013066Y000814D01*
X013027Y000842D01*
X012990Y000873D01*
X012956Y000907D01*
X012925Y000944D01*
X012897Y000983D01*
X012873Y001024D01*
X012852Y001067D01*
X012834Y001112D01*
X012821Y001158D01*
X012811Y001205D01*
X012805Y001252D01*
X012803Y001300D01*
X012803Y009300D02*
X012805Y009348D01*
X012811Y009395D01*
X012821Y009442D01*
X012834Y009488D01*
X012852Y009533D01*
X012873Y009576D01*
X012897Y009617D01*
X012925Y009656D01*
X012956Y009693D01*
X012990Y009727D01*
X013027Y009758D01*
X013066Y009786D01*
X013107Y009810D01*
X013150Y009831D01*
X013195Y009849D01*
X013241Y009862D01*
X013288Y009872D01*
X013335Y009878D01*
X013383Y009880D01*
X013431Y009878D01*
X013478Y009872D01*
X013525Y009862D01*
X013571Y009849D01*
X013616Y009831D01*
X013659Y009810D01*
X013700Y009786D01*
X013739Y009758D01*
X013776Y009727D01*
X013810Y009693D01*
X013841Y009656D01*
X013869Y009617D01*
X013893Y009576D01*
X013914Y009533D01*
X013932Y009488D01*
X013945Y009442D01*
X013955Y009395D01*
X013961Y009348D01*
X013963Y009300D01*
X013961Y009252D01*
X013955Y009205D01*
X013945Y009158D01*
X013932Y009112D01*
X013914Y009067D01*
X013893Y009024D01*
X013869Y008983D01*
X013841Y008944D01*
X013810Y008907D01*
X013776Y008873D01*
X013739Y008842D01*
X013700Y008814D01*
X013659Y008790D01*
X013616Y008769D01*
X013571Y008751D01*
X013525Y008738D01*
X013478Y008728D01*
X013431Y008722D01*
X013383Y008720D01*
X013335Y008722D01*
X013288Y008728D01*
X013241Y008738D01*
X013195Y008751D01*
X013150Y008769D01*
X013107Y008790D01*
X013066Y008814D01*
X013027Y008842D01*
X012990Y008873D01*
X012956Y008907D01*
X012925Y008944D01*
X012897Y008983D01*
X012873Y009024D01*
X012852Y009067D01*
X012834Y009112D01*
X012821Y009158D01*
X012811Y009205D01*
X012805Y009252D01*
X012803Y009300D01*
X031303Y009300D02*
X031305Y009348D01*
X031311Y009395D01*
X031321Y009442D01*
X031334Y009488D01*
X031352Y009533D01*
X031373Y009576D01*
X031397Y009617D01*
X031425Y009656D01*
X031456Y009693D01*
X031490Y009727D01*
X031527Y009758D01*
X031566Y009786D01*
X031607Y009810D01*
X031650Y009831D01*
X031695Y009849D01*
X031741Y009862D01*
X031788Y009872D01*
X031835Y009878D01*
X031883Y009880D01*
X031931Y009878D01*
X031978Y009872D01*
X032025Y009862D01*
X032071Y009849D01*
X032116Y009831D01*
X032159Y009810D01*
X032200Y009786D01*
X032239Y009758D01*
X032276Y009727D01*
X032310Y009693D01*
X032341Y009656D01*
X032369Y009617D01*
X032393Y009576D01*
X032414Y009533D01*
X032432Y009488D01*
X032445Y009442D01*
X032455Y009395D01*
X032461Y009348D01*
X032463Y009300D01*
X032461Y009252D01*
X032455Y009205D01*
X032445Y009158D01*
X032432Y009112D01*
X032414Y009067D01*
X032393Y009024D01*
X032369Y008983D01*
X032341Y008944D01*
X032310Y008907D01*
X032276Y008873D01*
X032239Y008842D01*
X032200Y008814D01*
X032159Y008790D01*
X032116Y008769D01*
X032071Y008751D01*
X032025Y008738D01*
X031978Y008728D01*
X031931Y008722D01*
X031883Y008720D01*
X031835Y008722D01*
X031788Y008728D01*
X031741Y008738D01*
X031695Y008751D01*
X031650Y008769D01*
X031607Y008790D01*
X031566Y008814D01*
X031527Y008842D01*
X031490Y008873D01*
X031456Y008907D01*
X031425Y008944D01*
X031397Y008983D01*
X031373Y009024D01*
X031352Y009067D01*
X031334Y009112D01*
X031321Y009158D01*
X031311Y009205D01*
X031305Y009252D01*
X031303Y009300D01*
X031303Y001300D02*
X031305Y001348D01*
X031311Y001395D01*
X031321Y001442D01*
X031334Y001488D01*
X031352Y001533D01*
X031373Y001576D01*
X031397Y001617D01*
X031425Y001656D01*
X031456Y001693D01*
X031490Y001727D01*
X031527Y001758D01*
X031566Y001786D01*
X031607Y001810D01*
X031650Y001831D01*
X031695Y001849D01*
X031741Y001862D01*
X031788Y001872D01*
X031835Y001878D01*
X031883Y001880D01*
X031931Y001878D01*
X031978Y001872D01*
X032025Y001862D01*
X032071Y001849D01*
X032116Y001831D01*
X032159Y001810D01*
X032200Y001786D01*
X032239Y001758D01*
X032276Y001727D01*
X032310Y001693D01*
X032341Y001656D01*
X032369Y001617D01*
X032393Y001576D01*
X032414Y001533D01*
X032432Y001488D01*
X032445Y001442D01*
X032455Y001395D01*
X032461Y001348D01*
X032463Y001300D01*
X032461Y001252D01*
X032455Y001205D01*
X032445Y001158D01*
X032432Y001112D01*
X032414Y001067D01*
X032393Y001024D01*
X032369Y000983D01*
X032341Y000944D01*
X032310Y000907D01*
X032276Y000873D01*
X032239Y000842D01*
X032200Y000814D01*
X032159Y000790D01*
X032116Y000769D01*
X032071Y000751D01*
X032025Y000738D01*
X031978Y000728D01*
X031931Y000722D01*
X031883Y000720D01*
X031835Y000722D01*
X031788Y000728D01*
X031741Y000738D01*
X031695Y000751D01*
X031650Y000769D01*
X031607Y000790D01*
X031566Y000814D01*
X031527Y000842D01*
X031490Y000873D01*
X031456Y000907D01*
X031425Y000944D01*
X031397Y000983D01*
X031373Y001024D01*
X031352Y001067D01*
X031334Y001112D01*
X031321Y001158D01*
X031311Y001205D01*
X031305Y001252D01*
X031303Y001300D01*
D12*
X028279Y005350D02*
X026429Y005350D01*
X026279Y005550D01*
X026079Y005550D01*
X025479Y005550D01*
X025279Y005550D01*
X025129Y005350D01*
X023579Y005350D01*
X023579Y005750D01*
X023579Y005850D01*
X025479Y005850D01*
X026079Y005850D01*
X026079Y005750D01*
X026079Y005550D01*
X025479Y005550D02*
X025479Y005750D01*
X025479Y005850D01*
X026079Y005850D02*
X027779Y005850D01*
X027779Y008350D01*
X017779Y008350D01*
X017779Y005850D01*
X020479Y005850D01*
X021079Y005850D01*
X021079Y005750D01*
X021079Y005550D01*
X021279Y005550D01*
X021429Y005350D01*
X021979Y005350D01*
X021979Y005750D01*
X021979Y005850D01*
X021079Y005850D01*
X020479Y005850D02*
X020479Y005750D01*
X020479Y005550D01*
X020279Y005550D01*
X020129Y005350D01*
X019579Y005350D01*
X019579Y005400D01*
X018979Y005400D01*
X018979Y005350D01*
X017279Y005350D01*
X017279Y008850D01*
X017779Y008850D01*
X017779Y008950D01*
X018279Y008950D01*
X018279Y008850D01*
X022529Y008850D01*
X022529Y008950D01*
X023029Y008950D01*
X023029Y008850D01*
X027279Y008850D01*
X027279Y008950D01*
X027779Y008950D01*
X027779Y008850D01*
X028279Y008850D01*
X028279Y005350D01*
X023579Y005350D02*
X021979Y005350D01*
X021979Y005850D02*
X021979Y006150D01*
X023579Y006150D01*
X023579Y005850D01*
X021079Y005550D02*
X020479Y005550D01*
D13*
X020479Y005750D02*
X017679Y005750D01*
X017679Y008450D01*
X027879Y008450D01*
X027879Y005750D01*
X026079Y005750D01*
X025479Y005750D02*
X023579Y005750D01*
X021979Y005750D02*
X021079Y005750D01*
D14*
X019024Y009135D02*
X018603Y009135D01*
X018814Y009135D02*
X018814Y009766D01*
X018603Y009555D01*
X018379Y009345D02*
X018379Y009766D01*
X017959Y009766D02*
X017959Y009345D01*
X018169Y009135D01*
X018379Y009345D01*
X017735Y009345D02*
X017735Y009240D01*
X017630Y009135D01*
X017419Y009135D01*
X017314Y009240D01*
X017419Y009450D02*
X017630Y009450D01*
X017735Y009345D01*
X017419Y009450D02*
X017314Y009555D01*
X017314Y009660D01*
X017419Y009766D01*
X017630Y009766D01*
X017735Y009660D01*
D15*
X018379Y007825D02*
X018304Y007750D01*
X018379Y007825D02*
X018530Y007825D01*
X018605Y007750D01*
X018605Y007675D01*
X018304Y007375D01*
X018605Y007375D01*
X018455Y006825D02*
X018455Y006375D01*
X018605Y006375D02*
X018304Y006375D01*
X018304Y006675D02*
X018455Y006825D01*
X022404Y005825D02*
X022555Y005975D01*
X022555Y005525D01*
X022705Y005525D02*
X022404Y005525D01*
X022865Y005600D02*
X022865Y005750D01*
X023090Y005750D01*
X023165Y005675D01*
X023165Y005600D01*
X023090Y005525D01*
X022940Y005525D01*
X022865Y005600D01*
X022865Y005750D02*
X023015Y005900D01*
X023165Y005975D01*
D16*
X024648Y003906D02*
X024594Y003853D01*
X024594Y003746D01*
X024648Y003693D01*
X024648Y003584D02*
X024594Y003531D01*
X024594Y003424D01*
X024648Y003370D01*
X024861Y003370D01*
X024914Y003424D01*
X024914Y003531D01*
X024861Y003584D01*
X024914Y003693D02*
X024701Y003906D01*
X024648Y003906D01*
X024914Y003906D02*
X024914Y003693D01*
X024923Y003135D02*
X024923Y002815D01*
X024817Y002815D02*
X025030Y002815D01*
X024708Y002868D02*
X024655Y002815D01*
X024548Y002815D01*
X024494Y002868D01*
X024494Y003082D01*
X024548Y003135D01*
X024655Y003135D01*
X024708Y003082D01*
X024817Y003029D02*
X024923Y003135D01*
M02*
